<?xml version="1.0" encoding="utf-8" standalone="no"?>
<!DOCTYPE svg PUBLIC "-//W3C//DTD SVG 1.1//EN"
  "http://www.w3.org/Graphics/SVG/1.1/DTD/svg11.dtd">
<!-- Created with matplotlib (https://matplotlib.org/) -->
<svg height="288pt" version="1.1" viewBox="0 0 288 288" width="288pt" xmlns="http://www.w3.org/2000/svg" xmlns:xlink="http://www.w3.org/1999/xlink">
 <defs>
  <style type="text/css">
*{stroke-linecap:butt;stroke-linejoin:round;}
  </style>
 </defs>
 <g id="figure_1">
  <g id="patch_1">
   <path d="M 0 288 
L 288 288 
L 288 0 
L 0 0 
z
" style="fill:#ffffff;"/>
  </g>
  <g id="axes_1">
   <g id="patch_2">
    <path d="M 49.8 243.7 
L 238.217143 243.7 
L 238.217143 50.725714 
L 49.8 50.725714 
z
" style="fill:#ffffff;"/>
   </g>
   <g id="matplotlib.axis_1">
    <g id="xtick_1">
     <g id="text_1">
      <!-- 0 -->
      <defs>
       <path d="M 4.15625 35.296875 
Q 4.15625 48 6.765625 55.734375 
Q 9.375 63.484375 14.515625 67.671875 
Q 19.671875 71.875 27.484375 71.875 
Q 33.25 71.875 37.59375 69.546875 
Q 41.9375 67.234375 44.765625 62.859375 
Q 47.609375 58.5 49.21875 52.21875 
Q 50.828125 45.953125 50.828125 35.296875 
Q 50.828125 22.703125 48.234375 14.96875 
Q 45.65625 7.234375 40.5 3 
Q 35.359375 -1.21875 27.484375 -1.21875 
Q 17.140625 -1.21875 11.234375 6.203125 
Q 4.15625 15.140625 4.15625 35.296875 
z
M 13.1875 35.296875 
Q 13.1875 17.671875 17.3125 11.828125 
Q 21.4375 6 27.484375 6 
Q 33.546875 6 37.671875 11.859375 
Q 41.796875 17.71875 41.796875 35.296875 
Q 41.796875 52.984375 37.671875 58.78125 
Q 33.546875 64.59375 27.390625 64.59375 
Q 21.34375 64.59375 17.71875 59.46875 
Q 13.1875 52.9375 13.1875 35.296875 
z
" id="ArialMT-48"/>
      </defs>
      <g style="fill:#262626;" transform="translate(50.687754 261.073594)scale(0.11 -0.11)">
       <use xlink:href="#ArialMT-48"/>
      </g>
     </g>
    </g>
    <g id="xtick_2">
     <g id="text_2">
      <!-- 2 -->
      <defs>
       <path d="M 50.34375 8.453125 
L 50.34375 0 
L 3.03125 0 
Q 2.9375 3.171875 4.046875 6.109375 
Q 5.859375 10.9375 9.828125 15.625 
Q 13.8125 20.3125 21.34375 26.46875 
Q 33.015625 36.03125 37.109375 41.625 
Q 41.21875 47.21875 41.21875 52.203125 
Q 41.21875 57.421875 37.46875 61 
Q 33.734375 64.59375 27.734375 64.59375 
Q 21.390625 64.59375 17.578125 60.78125 
Q 13.765625 56.984375 13.71875 50.25 
L 4.6875 51.171875 
Q 5.609375 61.28125 11.65625 66.578125 
Q 17.71875 71.875 27.9375 71.875 
Q 38.234375 71.875 44.234375 66.15625 
Q 50.25 60.453125 50.25 52 
Q 50.25 47.703125 48.484375 43.546875 
Q 46.734375 39.40625 42.65625 34.8125 
Q 38.578125 30.21875 29.109375 22.21875 
Q 21.1875 15.578125 18.9375 13.203125 
Q 16.703125 10.84375 15.234375 8.453125 
z
" id="ArialMT-50"/>
      </defs>
      <g style="fill:#262626;" transform="translate(102.266212 261.073594)scale(0.11 -0.11)">
       <use xlink:href="#ArialMT-50"/>
      </g>
     </g>
    </g>
    <g id="xtick_3">
     <g id="text_3">
      <!-- 4 -->
      <defs>
       <path d="M 32.328125 0 
L 32.328125 17.140625 
L 1.265625 17.140625 
L 1.265625 25.203125 
L 33.9375 71.578125 
L 41.109375 71.578125 
L 41.109375 25.203125 
L 50.78125 25.203125 
L 50.78125 17.140625 
L 41.109375 17.140625 
L 41.109375 0 
z
M 32.328125 25.203125 
L 32.328125 57.46875 
L 9.90625 25.203125 
z
" id="ArialMT-52"/>
      </defs>
      <g style="fill:#262626;" transform="translate(153.84467 261.073594)scale(0.11 -0.11)">
       <use xlink:href="#ArialMT-52"/>
      </g>
     </g>
    </g>
    <g id="xtick_4">
     <g id="text_4">
      <!-- 6 -->
      <defs>
       <path d="M 49.75 54.046875 
L 41.015625 53.375 
Q 39.84375 58.546875 37.703125 60.890625 
Q 34.125 64.65625 28.90625 64.65625 
Q 24.703125 64.65625 21.53125 62.3125 
Q 17.390625 59.28125 14.984375 53.46875 
Q 12.59375 47.65625 12.5 36.921875 
Q 15.671875 41.75 20.265625 44.09375 
Q 24.859375 46.4375 29.890625 46.4375 
Q 38.671875 46.4375 44.84375 39.96875 
Q 51.03125 33.5 51.03125 23.25 
Q 51.03125 16.5 48.125 10.71875 
Q 45.21875 4.9375 40.140625 1.859375 
Q 35.0625 -1.21875 28.609375 -1.21875 
Q 17.625 -1.21875 10.6875 6.859375 
Q 3.765625 14.9375 3.765625 33.5 
Q 3.765625 54.25 11.421875 63.671875 
Q 18.109375 71.875 29.4375 71.875 
Q 37.890625 71.875 43.28125 67.140625 
Q 48.6875 62.40625 49.75 54.046875 
z
M 13.875 23.1875 
Q 13.875 18.65625 15.796875 14.5 
Q 17.71875 10.359375 21.1875 8.171875 
Q 24.65625 6 28.46875 6 
Q 34.03125 6 38.03125 10.484375 
Q 42.046875 14.984375 42.046875 22.703125 
Q 42.046875 30.125 38.078125 34.390625 
Q 34.125 38.671875 28.125 38.671875 
Q 22.171875 38.671875 18.015625 34.390625 
Q 13.875 30.125 13.875 23.1875 
z
" id="ArialMT-54"/>
      </defs>
      <g style="fill:#262626;" transform="translate(205.423129 261.073594)scale(0.11 -0.11)">
       <use xlink:href="#ArialMT-54"/>
      </g>
     </g>
    </g>
    <g id="text_5">
     <!-- DoR -->
     <defs>
      <path d="M 7.71875 0 
L 7.71875 71.578125 
L 32.375 71.578125 
Q 40.71875 71.578125 45.125 70.5625 
Q 51.265625 69.140625 55.609375 65.4375 
Q 61.28125 60.640625 64.078125 53.1875 
Q 66.890625 45.75 66.890625 36.1875 
Q 66.890625 28.03125 64.984375 21.734375 
Q 63.09375 15.4375 60.109375 11.296875 
Q 57.125 7.171875 53.578125 4.796875 
Q 50.046875 2.4375 45.046875 1.21875 
Q 40.046875 0 33.546875 0 
z
M 17.1875 8.453125 
L 32.46875 8.453125 
Q 39.546875 8.453125 43.578125 9.765625 
Q 47.609375 11.078125 50 13.484375 
Q 53.375 16.84375 55.25 22.53125 
Q 57.125 28.21875 57.125 36.328125 
Q 57.125 47.5625 53.4375 53.59375 
Q 49.75 59.625 44.484375 61.671875 
Q 40.671875 63.140625 32.234375 63.140625 
L 17.1875 63.140625 
z
" id="ArialMT-68"/>
      <path d="M 3.328125 25.921875 
Q 3.328125 40.328125 11.328125 47.265625 
Q 18.015625 53.03125 27.640625 53.03125 
Q 38.328125 53.03125 45.109375 46.015625 
Q 51.90625 39.015625 51.90625 26.65625 
Q 51.90625 16.65625 48.90625 10.90625 
Q 45.90625 5.171875 40.15625 2 
Q 34.421875 -1.171875 27.640625 -1.171875 
Q 16.75 -1.171875 10.03125 5.8125 
Q 3.328125 12.796875 3.328125 25.921875 
z
M 12.359375 25.921875 
Q 12.359375 15.96875 16.703125 11.015625 
Q 21.046875 6.0625 27.640625 6.0625 
Q 34.1875 6.0625 38.53125 11.03125 
Q 42.875 16.015625 42.875 26.21875 
Q 42.875 35.84375 38.5 40.796875 
Q 34.125 45.75 27.640625 45.75 
Q 21.046875 45.75 16.703125 40.8125 
Q 12.359375 35.890625 12.359375 25.921875 
z
" id="ArialMT-111"/>
      <path d="M 7.859375 0 
L 7.859375 71.578125 
L 39.59375 71.578125 
Q 49.171875 71.578125 54.140625 69.640625 
Q 59.125 67.71875 62.109375 62.828125 
Q 65.09375 57.953125 65.09375 52.046875 
Q 65.09375 44.4375 60.15625 39.203125 
Q 55.21875 33.984375 44.921875 32.5625 
Q 48.6875 30.765625 50.640625 29 
Q 54.78125 25.203125 58.5 19.484375 
L 70.953125 0 
L 59.03125 0 
L 49.5625 14.890625 
Q 45.40625 21.34375 42.71875 24.75 
Q 40.046875 28.171875 37.921875 29.53125 
Q 35.796875 30.90625 33.59375 31.453125 
Q 31.984375 31.78125 28.328125 31.78125 
L 17.328125 31.78125 
L 17.328125 0 
z
M 17.328125 39.984375 
L 37.703125 39.984375 
Q 44.1875 39.984375 47.84375 41.328125 
Q 51.515625 42.671875 53.421875 45.625 
Q 55.328125 48.578125 55.328125 52.046875 
Q 55.328125 57.125 51.640625 60.390625 
Q 47.953125 63.671875 39.984375 63.671875 
L 17.328125 63.671875 
z
" id="ArialMT-82"/>
     </defs>
     <g style="fill:#262626;" transform="translate(132.005759 275.849219)scale(0.12 -0.12)">
      <use xlink:href="#ArialMT-68"/>
      <use x="72.216797" xlink:href="#ArialMT-111"/>
      <use x="127.832031" xlink:href="#ArialMT-82"/>
     </g>
    </g>
   </g>
   <g id="matplotlib.axis_2">
    <g id="ytick_1">
     <g id="text_6">
      <!-- 0.2 -->
      <defs>
       <path d="M 9.078125 0 
L 9.078125 10.015625 
L 19.09375 10.015625 
L 19.09375 0 
z
" id="ArialMT-46"/>
      </defs>
      <g style="fill:#262626;" transform="translate(25.01 215.859756)scale(0.11 -0.11)">
       <use xlink:href="#ArialMT-48"/>
       <use x="55.615234" xlink:href="#ArialMT-46"/>
       <use x="83.398438" xlink:href="#ArialMT-50"/>
      </g>
     </g>
    </g>
    <g id="ytick_2">
     <g id="text_7">
      <!-- 0.4 -->
      <g style="fill:#262626;" transform="translate(25.01 181.766458)scale(0.11 -0.11)">
       <use xlink:href="#ArialMT-48"/>
       <use x="55.615234" xlink:href="#ArialMT-46"/>
       <use x="83.398438" xlink:href="#ArialMT-52"/>
      </g>
     </g>
    </g>
    <g id="ytick_3">
     <g id="text_8">
      <!-- 0.6 -->
      <g style="fill:#262626;" transform="translate(25.01 147.673159)scale(0.11 -0.11)">
       <use xlink:href="#ArialMT-48"/>
       <use x="55.615234" xlink:href="#ArialMT-46"/>
       <use x="83.398438" xlink:href="#ArialMT-54"/>
      </g>
     </g>
    </g>
    <g id="ytick_4">
     <g id="text_9">
      <!-- 0.8 -->
      <defs>
       <path d="M 17.671875 38.8125 
Q 12.203125 40.828125 9.5625 44.53125 
Q 6.9375 48.25 6.9375 53.421875 
Q 6.9375 61.234375 12.546875 66.546875 
Q 18.171875 71.875 27.484375 71.875 
Q 36.859375 71.875 42.578125 66.421875 
Q 48.296875 60.984375 48.296875 53.171875 
Q 48.296875 48.1875 45.671875 44.5 
Q 43.0625 40.828125 37.75 38.8125 
Q 44.34375 36.671875 47.78125 31.875 
Q 51.21875 27.09375 51.21875 20.453125 
Q 51.21875 11.28125 44.71875 5.03125 
Q 38.234375 -1.21875 27.640625 -1.21875 
Q 17.046875 -1.21875 10.546875 5.046875 
Q 4.046875 11.328125 4.046875 20.703125 
Q 4.046875 27.6875 7.59375 32.390625 
Q 11.140625 37.109375 17.671875 38.8125 
z
M 15.921875 53.71875 
Q 15.921875 48.640625 19.1875 45.40625 
Q 22.46875 42.1875 27.6875 42.1875 
Q 32.765625 42.1875 36.015625 45.375 
Q 39.265625 48.578125 39.265625 53.21875 
Q 39.265625 58.0625 35.90625 61.359375 
Q 32.5625 64.65625 27.59375 64.65625 
Q 22.5625 64.65625 19.234375 61.421875 
Q 15.921875 58.203125 15.921875 53.71875 
z
M 13.09375 20.65625 
Q 13.09375 16.890625 14.875 13.375 
Q 16.65625 9.859375 20.171875 7.921875 
Q 23.6875 6 27.734375 6 
Q 34.03125 6 38.125 10.046875 
Q 42.234375 14.109375 42.234375 20.359375 
Q 42.234375 26.703125 38.015625 30.859375 
Q 33.796875 35.015625 27.4375 35.015625 
Q 21.234375 35.015625 17.15625 30.90625 
Q 13.09375 26.8125 13.09375 20.65625 
z
" id="ArialMT-56"/>
      </defs>
      <g style="fill:#262626;" transform="translate(25.01 113.579861)scale(0.11 -0.11)">
       <use xlink:href="#ArialMT-48"/>
       <use x="55.615234" xlink:href="#ArialMT-46"/>
       <use x="83.398438" xlink:href="#ArialMT-56"/>
      </g>
     </g>
    </g>
    <g id="ytick_5">
     <g id="text_10">
      <!-- 1.0 -->
      <defs>
       <path d="M 37.25 0 
L 28.46875 0 
L 28.46875 56 
Q 25.296875 52.984375 20.140625 49.953125 
Q 14.984375 46.921875 10.890625 45.40625 
L 10.890625 53.90625 
Q 18.265625 57.375 23.78125 62.296875 
Q 29.296875 67.234375 31.59375 71.875 
L 37.25 71.875 
z
" id="ArialMT-49"/>
      </defs>
      <g style="fill:#262626;" transform="translate(25.01 79.486562)scale(0.11 -0.11)">
       <use xlink:href="#ArialMT-49"/>
       <use x="55.615234" xlink:href="#ArialMT-46"/>
       <use x="83.398438" xlink:href="#ArialMT-48"/>
      </g>
     </g>
    </g>
    <g id="text_11">
     <!-- Maximum design objective -->
     <defs>
      <path d="M 7.421875 0 
L 7.421875 71.578125 
L 21.6875 71.578125 
L 38.625 20.90625 
Q 40.96875 13.8125 42.046875 10.296875 
Q 43.265625 14.203125 45.84375 21.78125 
L 62.984375 71.578125 
L 75.734375 71.578125 
L 75.734375 0 
L 66.609375 0 
L 66.609375 59.90625 
L 45.796875 0 
L 37.25 0 
L 16.546875 60.9375 
L 16.546875 0 
z
" id="ArialMT-77"/>
      <path d="M 40.4375 6.390625 
Q 35.546875 2.25 31.03125 0.53125 
Q 26.515625 -1.171875 21.34375 -1.171875 
Q 12.796875 -1.171875 8.203125 3 
Q 3.609375 7.171875 3.609375 13.671875 
Q 3.609375 17.484375 5.34375 20.625 
Q 7.078125 23.78125 9.890625 25.6875 
Q 12.703125 27.59375 16.21875 28.5625 
Q 18.796875 29.25 24.03125 29.890625 
Q 34.671875 31.15625 39.703125 32.90625 
Q 39.75 34.71875 39.75 35.203125 
Q 39.75 40.578125 37.25 42.78125 
Q 33.890625 45.75 27.25 45.75 
Q 21.046875 45.75 18.09375 43.578125 
Q 15.140625 41.40625 13.71875 35.890625 
L 5.125 37.0625 
Q 6.296875 42.578125 8.984375 45.96875 
Q 11.671875 49.359375 16.75 51.1875 
Q 21.828125 53.03125 28.515625 53.03125 
Q 35.15625 53.03125 39.296875 51.46875 
Q 43.453125 49.90625 45.40625 47.53125 
Q 47.359375 45.171875 48.140625 41.546875 
Q 48.578125 39.3125 48.578125 33.453125 
L 48.578125 21.734375 
Q 48.578125 9.46875 49.140625 6.21875 
Q 49.703125 2.984375 51.375 0 
L 42.1875 0 
Q 40.828125 2.734375 40.4375 6.390625 
z
M 39.703125 26.03125 
Q 34.90625 24.078125 25.34375 22.703125 
Q 19.921875 21.921875 17.671875 20.9375 
Q 15.4375 19.96875 14.203125 18.09375 
Q 12.984375 16.21875 12.984375 13.921875 
Q 12.984375 10.40625 15.640625 8.0625 
Q 18.3125 5.71875 23.4375 5.71875 
Q 28.515625 5.71875 32.46875 7.9375 
Q 36.421875 10.15625 38.28125 14.015625 
Q 39.703125 17 39.703125 22.796875 
z
" id="ArialMT-97"/>
      <path d="M 0.734375 0 
L 19.671875 26.953125 
L 2.15625 51.859375 
L 13.140625 51.859375 
L 21.09375 39.703125 
Q 23.34375 36.234375 24.703125 33.890625 
Q 26.859375 37.109375 28.65625 39.59375 
L 37.40625 51.859375 
L 47.90625 51.859375 
L 29.984375 27.4375 
L 49.265625 0 
L 38.484375 0 
L 27.828125 16.109375 
L 25 20.453125 
L 11.375 0 
z
" id="ArialMT-120"/>
      <path d="M 6.640625 61.46875 
L 6.640625 71.578125 
L 15.4375 71.578125 
L 15.4375 61.46875 
z
M 6.640625 0 
L 6.640625 51.859375 
L 15.4375 51.859375 
L 15.4375 0 
z
" id="ArialMT-105"/>
      <path d="M 6.59375 0 
L 6.59375 51.859375 
L 14.453125 51.859375 
L 14.453125 44.578125 
Q 16.890625 48.390625 20.9375 50.703125 
Q 25 53.03125 30.171875 53.03125 
Q 35.9375 53.03125 39.625 50.640625 
Q 43.3125 48.25 44.828125 43.953125 
Q 50.984375 53.03125 60.84375 53.03125 
Q 68.5625 53.03125 72.703125 48.75 
Q 76.859375 44.484375 76.859375 35.59375 
L 76.859375 0 
L 68.109375 0 
L 68.109375 32.671875 
Q 68.109375 37.9375 67.25 40.25 
Q 66.40625 42.578125 64.15625 43.984375 
Q 61.921875 45.40625 58.890625 45.40625 
Q 53.421875 45.40625 49.796875 41.765625 
Q 46.1875 38.140625 46.1875 30.125 
L 46.1875 0 
L 37.40625 0 
L 37.40625 33.6875 
Q 37.40625 39.546875 35.25 42.46875 
Q 33.109375 45.40625 28.21875 45.40625 
Q 24.515625 45.40625 21.359375 43.453125 
Q 18.21875 41.5 16.796875 37.734375 
Q 15.375 33.984375 15.375 26.90625 
L 15.375 0 
z
" id="ArialMT-109"/>
      <path d="M 40.578125 0 
L 40.578125 7.625 
Q 34.515625 -1.171875 24.125 -1.171875 
Q 19.53125 -1.171875 15.546875 0.578125 
Q 11.578125 2.34375 9.640625 5 
Q 7.71875 7.671875 6.9375 11.53125 
Q 6.390625 14.109375 6.390625 19.734375 
L 6.390625 51.859375 
L 15.1875 51.859375 
L 15.1875 23.09375 
Q 15.1875 16.21875 15.71875 13.8125 
Q 16.546875 10.359375 19.234375 8.375 
Q 21.921875 6.390625 25.875 6.390625 
Q 29.828125 6.390625 33.296875 8.421875 
Q 36.765625 10.453125 38.203125 13.9375 
Q 39.65625 17.4375 39.65625 24.078125 
L 39.65625 51.859375 
L 48.4375 51.859375 
L 48.4375 0 
z
" id="ArialMT-117"/>
      <path id="ArialMT-32"/>
      <path d="M 40.234375 0 
L 40.234375 6.546875 
Q 35.296875 -1.171875 25.734375 -1.171875 
Q 19.53125 -1.171875 14.328125 2.25 
Q 9.125 5.671875 6.265625 11.796875 
Q 3.421875 17.921875 3.421875 25.875 
Q 3.421875 33.640625 6 39.96875 
Q 8.59375 46.296875 13.765625 49.65625 
Q 18.953125 53.03125 25.34375 53.03125 
Q 30.03125 53.03125 33.6875 51.046875 
Q 37.359375 49.078125 39.65625 45.90625 
L 39.65625 71.578125 
L 48.390625 71.578125 
L 48.390625 0 
z
M 12.453125 25.875 
Q 12.453125 15.921875 16.640625 10.984375 
Q 20.84375 6.0625 26.5625 6.0625 
Q 32.328125 6.0625 36.34375 10.765625 
Q 40.375 15.484375 40.375 25.140625 
Q 40.375 35.796875 36.265625 40.765625 
Q 32.171875 45.75 26.171875 45.75 
Q 20.3125 45.75 16.375 40.96875 
Q 12.453125 36.1875 12.453125 25.875 
z
" id="ArialMT-100"/>
      <path d="M 42.09375 16.703125 
L 51.171875 15.578125 
Q 49.03125 7.625 43.21875 3.21875 
Q 37.40625 -1.171875 28.375 -1.171875 
Q 17 -1.171875 10.328125 5.828125 
Q 3.65625 12.84375 3.65625 25.484375 
Q 3.65625 38.578125 10.390625 45.796875 
Q 17.140625 53.03125 27.875 53.03125 
Q 38.28125 53.03125 44.875 45.953125 
Q 51.46875 38.875 51.46875 26.03125 
Q 51.46875 25.25 51.421875 23.6875 
L 12.75 23.6875 
Q 13.234375 15.140625 17.578125 10.59375 
Q 21.921875 6.0625 28.421875 6.0625 
Q 33.25 6.0625 36.671875 8.59375 
Q 40.09375 11.140625 42.09375 16.703125 
z
M 13.234375 30.90625 
L 42.1875 30.90625 
Q 41.609375 37.453125 38.875 40.71875 
Q 34.671875 45.796875 27.984375 45.796875 
Q 21.921875 45.796875 17.796875 41.75 
Q 13.671875 37.703125 13.234375 30.90625 
z
" id="ArialMT-101"/>
      <path d="M 3.078125 15.484375 
L 11.765625 16.84375 
Q 12.5 11.625 15.84375 8.84375 
Q 19.1875 6.0625 25.203125 6.0625 
Q 31.25 6.0625 34.171875 8.515625 
Q 37.109375 10.984375 37.109375 14.3125 
Q 37.109375 17.28125 34.515625 19 
Q 32.71875 20.171875 25.53125 21.96875 
Q 15.875 24.421875 12.140625 26.203125 
Q 8.40625 27.984375 6.46875 31.125 
Q 4.546875 34.28125 4.546875 38.09375 
Q 4.546875 41.546875 6.125 44.5 
Q 7.71875 47.46875 10.453125 49.421875 
Q 12.5 50.921875 16.03125 51.96875 
Q 19.578125 53.03125 23.640625 53.03125 
Q 29.734375 53.03125 34.34375 51.265625 
Q 38.96875 49.515625 41.15625 46.5 
Q 43.359375 43.5 44.1875 38.484375 
L 35.59375 37.3125 
Q 35.015625 41.3125 32.203125 43.546875 
Q 29.390625 45.796875 24.265625 45.796875 
Q 18.21875 45.796875 15.625 43.796875 
Q 13.03125 41.796875 13.03125 39.109375 
Q 13.03125 37.40625 14.109375 36.03125 
Q 15.1875 34.625 17.484375 33.6875 
Q 18.796875 33.203125 25.25 31.453125 
Q 34.578125 28.953125 38.25 27.359375 
Q 41.9375 25.78125 44.03125 22.75 
Q 46.140625 19.734375 46.140625 15.234375 
Q 46.140625 10.84375 43.578125 6.953125 
Q 41.015625 3.078125 36.171875 0.953125 
Q 31.34375 -1.171875 25.25 -1.171875 
Q 15.140625 -1.171875 9.84375 3.03125 
Q 4.546875 7.234375 3.078125 15.484375 
z
" id="ArialMT-115"/>
      <path d="M 4.984375 -4.296875 
L 13.53125 -5.5625 
Q 14.0625 -9.515625 16.5 -11.328125 
Q 19.78125 -13.765625 25.4375 -13.765625 
Q 31.546875 -13.765625 34.859375 -11.328125 
Q 38.1875 -8.890625 39.359375 -4.5 
Q 40.046875 -1.8125 39.984375 6.78125 
Q 34.234375 0 25.640625 0 
Q 14.9375 0 9.078125 7.71875 
Q 3.21875 15.4375 3.21875 26.21875 
Q 3.21875 33.640625 5.90625 39.90625 
Q 8.59375 46.1875 13.6875 49.609375 
Q 18.796875 53.03125 25.6875 53.03125 
Q 34.859375 53.03125 40.828125 45.609375 
L 40.828125 51.859375 
L 48.921875 51.859375 
L 48.921875 7.03125 
Q 48.921875 -5.078125 46.453125 -10.125 
Q 44 -15.1875 38.640625 -18.109375 
Q 33.296875 -21.046875 25.484375 -21.046875 
Q 16.21875 -21.046875 10.5 -16.875 
Q 4.78125 -12.703125 4.984375 -4.296875 
z
M 12.25 26.859375 
Q 12.25 16.65625 16.296875 11.96875 
Q 20.359375 7.28125 26.46875 7.28125 
Q 32.515625 7.28125 36.609375 11.9375 
Q 40.71875 16.609375 40.71875 26.5625 
Q 40.71875 36.078125 36.5 40.90625 
Q 32.28125 45.75 26.3125 45.75 
Q 20.453125 45.75 16.34375 40.984375 
Q 12.25 36.234375 12.25 26.859375 
z
" id="ArialMT-103"/>
      <path d="M 6.59375 0 
L 6.59375 51.859375 
L 14.5 51.859375 
L 14.5 44.484375 
Q 20.21875 53.03125 31 53.03125 
Q 35.6875 53.03125 39.625 51.34375 
Q 43.5625 49.65625 45.515625 46.921875 
Q 47.46875 44.1875 48.25 40.4375 
Q 48.734375 37.984375 48.734375 31.890625 
L 48.734375 0 
L 39.9375 0 
L 39.9375 31.546875 
Q 39.9375 36.921875 38.90625 39.578125 
Q 37.890625 42.234375 35.28125 43.8125 
Q 32.671875 45.40625 29.15625 45.40625 
Q 23.53125 45.40625 19.453125 41.84375 
Q 15.375 38.28125 15.375 28.328125 
L 15.375 0 
z
" id="ArialMT-110"/>
      <path d="M 14.703125 0 
L 6.546875 0 
L 6.546875 71.578125 
L 15.328125 71.578125 
L 15.328125 46.046875 
Q 20.90625 53.03125 29.546875 53.03125 
Q 34.328125 53.03125 38.59375 51.09375 
Q 42.875 49.171875 45.625 45.671875 
Q 48.390625 42.1875 49.953125 37.25 
Q 51.515625 32.328125 51.515625 26.703125 
Q 51.515625 13.375 44.921875 6.09375 
Q 38.328125 -1.171875 29.109375 -1.171875 
Q 19.921875 -1.171875 14.703125 6.5 
z
M 14.59375 26.3125 
Q 14.59375 17 17.140625 12.84375 
Q 21.296875 6.0625 28.375 6.0625 
Q 34.125 6.0625 38.328125 11.0625 
Q 42.53125 16.0625 42.53125 25.984375 
Q 42.53125 36.140625 38.5 40.96875 
Q 34.46875 45.796875 28.765625 45.796875 
Q 23 45.796875 18.796875 40.796875 
Q 14.59375 35.796875 14.59375 26.3125 
z
" id="ArialMT-98"/>
      <path d="M 6.546875 61.375 
L 6.546875 71.578125 
L 15.328125 71.578125 
L 15.328125 61.375 
z
M -4.59375 -20.125 
L -2.9375 -12.640625 
Q -0.296875 -13.328125 1.21875 -13.328125 
Q 3.90625 -13.328125 5.21875 -11.546875 
Q 6.546875 -9.765625 6.546875 -2.640625 
L 6.546875 51.859375 
L 15.328125 51.859375 
L 15.328125 -2.828125 
Q 15.328125 -12.40625 12.84375 -16.15625 
Q 9.671875 -21.046875 2.296875 -21.046875 
Q -1.265625 -21.046875 -4.59375 -20.125 
z
" id="ArialMT-106"/>
      <path d="M 40.4375 19 
L 49.078125 17.875 
Q 47.65625 8.9375 41.8125 3.875 
Q 35.984375 -1.171875 27.484375 -1.171875 
Q 16.84375 -1.171875 10.375 5.78125 
Q 3.90625 12.75 3.90625 25.734375 
Q 3.90625 34.125 6.6875 40.421875 
Q 9.46875 46.734375 15.15625 49.875 
Q 20.84375 53.03125 27.546875 53.03125 
Q 35.984375 53.03125 41.359375 48.75 
Q 46.734375 44.484375 48.25 36.625 
L 39.703125 35.296875 
Q 38.484375 40.53125 35.375 43.15625 
Q 32.28125 45.796875 27.875 45.796875 
Q 21.234375 45.796875 17.078125 41.03125 
Q 12.9375 36.28125 12.9375 25.984375 
Q 12.9375 15.53125 16.9375 10.796875 
Q 20.953125 6.0625 27.390625 6.0625 
Q 32.5625 6.0625 36.03125 9.234375 
Q 39.5 12.40625 40.4375 19 
z
" id="ArialMT-99"/>
      <path d="M 25.78125 7.859375 
L 27.046875 0.09375 
Q 23.34375 -0.6875 20.40625 -0.6875 
Q 15.625 -0.6875 12.984375 0.828125 
Q 10.359375 2.34375 9.28125 4.8125 
Q 8.203125 7.28125 8.203125 15.1875 
L 8.203125 45.015625 
L 1.765625 45.015625 
L 1.765625 51.859375 
L 8.203125 51.859375 
L 8.203125 64.703125 
L 16.9375 69.96875 
L 16.9375 51.859375 
L 25.78125 51.859375 
L 25.78125 45.015625 
L 16.9375 45.015625 
L 16.9375 14.703125 
Q 16.9375 10.9375 17.40625 9.859375 
Q 17.875 8.796875 18.921875 8.15625 
Q 19.96875 7.515625 21.921875 7.515625 
Q 23.390625 7.515625 25.78125 7.859375 
z
" id="ArialMT-116"/>
      <path d="M 21 0 
L 1.265625 51.859375 
L 10.546875 51.859375 
L 21.6875 20.796875 
Q 23.484375 15.765625 25 10.359375 
Q 26.171875 14.453125 28.265625 20.21875 
L 39.796875 51.859375 
L 48.828125 51.859375 
L 29.203125 0 
z
" id="ArialMT-118"/>
     </defs>
     <g style="fill:#262626;" transform="translate(18.484375 217.905045)rotate(-90)scale(0.12 -0.12)">
      <use xlink:href="#ArialMT-77"/>
      <use x="83.300781" xlink:href="#ArialMT-97"/>
      <use x="138.916016" xlink:href="#ArialMT-120"/>
      <use x="188.916016" xlink:href="#ArialMT-105"/>
      <use x="211.132812" xlink:href="#ArialMT-109"/>
      <use x="294.433594" xlink:href="#ArialMT-117"/>
      <use x="350.048828" xlink:href="#ArialMT-109"/>
      <use x="433.349609" xlink:href="#ArialMT-32"/>
      <use x="461.132812" xlink:href="#ArialMT-100"/>
      <use x="516.748047" xlink:href="#ArialMT-101"/>
      <use x="572.363281" xlink:href="#ArialMT-115"/>
      <use x="622.363281" xlink:href="#ArialMT-105"/>
      <use x="644.580078" xlink:href="#ArialMT-103"/>
      <use x="700.195312" xlink:href="#ArialMT-110"/>
      <use x="755.810547" xlink:href="#ArialMT-32"/>
      <use x="783.59375" xlink:href="#ArialMT-111"/>
      <use x="839.208984" xlink:href="#ArialMT-98"/>
      <use x="894.824219" xlink:href="#ArialMT-106"/>
      <use x="917.041016" xlink:href="#ArialMT-101"/>
      <use x="972.65625" xlink:href="#ArialMT-99"/>
      <use x="1022.65625" xlink:href="#ArialMT-116"/>
      <use x="1050.439453" xlink:href="#ArialMT-105"/>
      <use x="1072.65625" xlink:href="#ArialMT-118"/>
      <use x="1122.65625" xlink:href="#ArialMT-101"/>
     </g>
    </g>
   </g>
   <g id="PathCollection_1">
    <defs>
     <path d="M 0 3 
C 0.795609 3 1.55874 2.683901 2.12132 2.12132 
C 2.683901 1.55874 3 0.795609 3 0 
C 3 -0.795609 2.683901 -1.55874 2.12132 -2.12132 
C 1.55874 -2.683901 0.795609 -3 0 -3 
C -0.795609 -3 -1.55874 -2.683901 -2.12132 -2.12132 
C -2.683901 -1.55874 -3 -0.795609 -3 0 
C -3 0.795609 -2.683901 1.55874 -2.12132 2.12132 
C -1.55874 2.683901 -0.795609 3 0 3 
z
" id="m616f555743" style="stroke:#a1c9f4;stroke-opacity:0.8;"/>
    </defs>
    <g clip-path="url(#pefb1a70130)">
     <use style="fill:#a1c9f4;fill-opacity:0.8;stroke:#a1c9f4;stroke-opacity:0.8;" x="197.019765" xlink:href="#m616f555743" y="141.081176"/>
     <use style="fill:#a1c9f4;fill-opacity:0.8;stroke:#a1c9f4;stroke-opacity:0.8;" x="198.498717" xlink:href="#m616f555743" y="86.578095"/>
     <use style="fill:#a1c9f4;fill-opacity:0.8;stroke:#a1c9f4;stroke-opacity:0.8;" x="195.171074" xlink:href="#m616f555743" y="98.443586"/>
     <use style="fill:#a1c9f4;fill-opacity:0.8;stroke:#a1c9f4;stroke-opacity:0.8;" x="199.639623" xlink:href="#m616f555743" y="88.639035"/>
     <use style="fill:#a1c9f4;fill-opacity:0.8;stroke:#a1c9f4;stroke-opacity:0.8;" x="196.692282" xlink:href="#m616f555743" y="88.227018"/>
     <use style="fill:#a1c9f4;fill-opacity:0.8;stroke:#a1c9f4;stroke-opacity:0.8;" x="200.546497" xlink:href="#m616f555743" y="89.223735"/>
     <use style="fill:#a1c9f4;fill-opacity:0.8;stroke:#a1c9f4;stroke-opacity:0.8;" x="197.901448" xlink:href="#m616f555743" y="91.306324"/>
     <use style="fill:#a1c9f4;fill-opacity:0.8;stroke:#a1c9f4;stroke-opacity:0.8;" x="194.512478" xlink:href="#m616f555743" y="92.138201"/>
     <use style="fill:#a1c9f4;fill-opacity:0.8;stroke:#a1c9f4;stroke-opacity:0.8;" x="191.288825" xlink:href="#m616f555743" y="136.059063"/>
     <use style="fill:#a1c9f4;fill-opacity:0.8;stroke:#a1c9f4;stroke-opacity:0.8;" x="192.19371" xlink:href="#m616f555743" y="136.666605"/>
     <use style="fill:#a1c9f4;fill-opacity:0.8;stroke:#a1c9f4;stroke-opacity:0.8;" x="194.908366" xlink:href="#m616f555743" y="144.722"/>
     <use style="fill:#a1c9f4;fill-opacity:0.8;stroke:#a1c9f4;stroke-opacity:0.8;" x="193.744942" xlink:href="#m616f555743" y="102.919865"/>
     <use style="fill:#a1c9f4;fill-opacity:0.8;stroke:#a1c9f4;stroke-opacity:0.8;" x="196.201059" xlink:href="#m616f555743" y="85.711444"/>
     <use style="fill:#a1c9f4;fill-opacity:0.8;stroke:#a1c9f4;stroke-opacity:0.8;" x="190.277482" xlink:href="#m616f555743" y="125.319162"/>
     <use style="fill:#a1c9f4;fill-opacity:0.8;stroke:#a1c9f4;stroke-opacity:0.8;" x="193.311509" xlink:href="#m616f555743" y="137.695371"/>
     <use style="fill:#a1c9f4;fill-opacity:0.8;stroke:#a1c9f4;stroke-opacity:0.8;" x="162.061032" xlink:href="#m616f555743" y="150.178632"/>
     <use style="fill:#a1c9f4;fill-opacity:0.8;stroke:#a1c9f4;stroke-opacity:0.8;" x="194.512478" xlink:href="#m616f555743" y="92.138201"/>
     <use style="fill:#a1c9f4;fill-opacity:0.8;stroke:#a1c9f4;stroke-opacity:0.8;" x="193.551038" xlink:href="#m616f555743" y="90.74208"/>
     <use style="fill:#a1c9f4;fill-opacity:0.8;stroke:#a1c9f4;stroke-opacity:0.8;" x="196.265694" xlink:href="#m616f555743" y="103.60122"/>
     <use style="fill:#a1c9f4;fill-opacity:0.8;stroke:#a1c9f4;stroke-opacity:0.8;" x="194.973" xlink:href="#m616f555743" y="105.126213"/>
     <use style="fill:#a1c9f4;fill-opacity:0.8;stroke:#a1c9f4;stroke-opacity:0.8;" x="197.429117" xlink:href="#m616f555743" y="115.652008"/>
     <use style="fill:#a1c9f4;fill-opacity:0.8;stroke:#a1c9f4;stroke-opacity:0.8;" x="194.828523" xlink:href="#m616f555743" y="94.086974"/>
     <use style="fill:#a1c9f4;fill-opacity:0.8;stroke:#a1c9f4;stroke-opacity:0.8;" x="162.061032" xlink:href="#m616f555743" y="150.178632"/>
     <use style="fill:#a1c9f4;fill-opacity:0.8;stroke:#a1c9f4;stroke-opacity:0.8;" x="144.008571" xlink:href="#m616f555743" y="112.672594"/>
     <use style="fill:#a1c9f4;fill-opacity:0.8;stroke:#a1c9f4;stroke-opacity:0.8;" x="182.692415" xlink:href="#m616f555743" y="98.940496"/>
     <use style="fill:#a1c9f4;fill-opacity:0.8;stroke:#a1c9f4;stroke-opacity:0.8;" x="195.58703" xlink:href="#m616f555743" y="97.790017"/>
     <use style="fill:#a1c9f4;fill-opacity:0.8;stroke:#a1c9f4;stroke-opacity:0.8;" x="195.58703" xlink:href="#m616f555743" y="100.317694"/>
     <use style="fill:#a1c9f4;fill-opacity:0.8;stroke:#a1c9f4;stroke-opacity:0.8;" x="197.736132" xlink:href="#m616f555743" y="99.222618"/>
     <use style="fill:#a1c9f4;fill-opacity:0.8;stroke:#a1c9f4;stroke-opacity:0.8;" x="197.736132" xlink:href="#m616f555743" y="89.122478"/>
     <use style="fill:#a1c9f4;fill-opacity:0.8;stroke:#a1c9f4;stroke-opacity:0.8;" x="208.481644" xlink:href="#m616f555743" y="97.306063"/>
     <use style="fill:#a1c9f4;fill-opacity:0.8;stroke:#a1c9f4;stroke-opacity:0.8;" x="79.535499" xlink:href="#m616f555743" y="133.043681"/>
     <use style="fill:#a1c9f4;fill-opacity:0.8;stroke:#a1c9f4;stroke-opacity:0.8;" x="200.42251" xlink:href="#m616f555743" y="97.818826"/>
     <use style="fill:#a1c9f4;fill-opacity:0.8;stroke:#a1c9f4;stroke-opacity:0.8;" x="200.42251" xlink:href="#m616f555743" y="92.056206"/>
     <use style="fill:#a1c9f4;fill-opacity:0.8;stroke:#a1c9f4;stroke-opacity:0.8;" x="197.198856" xlink:href="#m616f555743" y="100.302012"/>
     <use style="fill:#a1c9f4;fill-opacity:0.8;stroke:#a1c9f4;stroke-opacity:0.8;" x="197.198856" xlink:href="#m616f555743" y="94.067711"/>
     <use style="fill:#a1c9f4;fill-opacity:0.8;stroke:#a1c9f4;stroke-opacity:0.8;" x="186.99062" xlink:href="#m616f555743" y="100.238087"/>
     <use style="fill:#a1c9f4;fill-opacity:0.8;stroke:#a1c9f4;stroke-opacity:0.8;" x="148.306776" xlink:href="#m616f555743" y="90.186359"/>
     <use style="fill:#a1c9f4;fill-opacity:0.8;stroke:#a1c9f4;stroke-opacity:0.8;" x="188.760469" xlink:href="#m616f555743" y="94.086974"/>
     <use style="fill:#a1c9f4;fill-opacity:0.8;stroke:#a1c9f4;stroke-opacity:0.8;" x="201.317969" xlink:href="#m616f555743" y="97.369306"/>
     <use style="fill:#a1c9f4;fill-opacity:0.8;stroke:#a1c9f4;stroke-opacity:0.8;" x="201.317969" xlink:href="#m616f555743" y="92.26963"/>
     <use style="fill:#a1c9f4;fill-opacity:0.8;stroke:#a1c9f4;stroke-opacity:0.8;" x="198.4525" xlink:href="#m616f555743" y="99.575483"/>
     <use style="fill:#a1c9f4;fill-opacity:0.8;stroke:#a1c9f4;stroke-opacity:0.8;" x="198.4525" xlink:href="#m616f555743" y="94.476149"/>
     <use style="fill:#a1c9f4;fill-opacity:0.8;stroke:#a1c9f4;stroke-opacity:0.8;" x="192.363376" xlink:href="#m616f555743" y="101.978379"/>
     <use style="fill:#a1c9f4;fill-opacity:0.8;stroke:#a1c9f4;stroke-opacity:0.8;" x="198.810683" xlink:href="#m616f555743" y="131.865246"/>
     <use style="fill:#a1c9f4;fill-opacity:0.8;stroke:#a1c9f4;stroke-opacity:0.8;" x="195.109451" xlink:href="#m616f555743" y="140.496988"/>
     <use style="fill:#a1c9f4;fill-opacity:0.8;stroke:#a1c9f4;stroke-opacity:0.8;" x="196.834896" xlink:href="#m616f555743" y="85.422332"/>
     <use style="fill:#a1c9f4;fill-opacity:0.8;stroke:#a1c9f4;stroke-opacity:0.8;" x="193.507253" xlink:href="#m616f555743" y="136.155036"/>
     <use style="fill:#a1c9f4;fill-opacity:0.8;stroke:#a1c9f4;stroke-opacity:0.8;" x="198.165953" xlink:href="#m616f555743" y="88.219176"/>
     <use style="fill:#a1c9f4;fill-opacity:0.8;stroke:#a1c9f4;stroke-opacity:0.8;" x="195.218612" xlink:href="#m616f555743" y="87.215469"/>
     <use style="fill:#a1c9f4;fill-opacity:0.8;stroke:#a1c9f4;stroke-opacity:0.8;" x="199.223972" xlink:href="#m616f555743" y="88.852118"/>
     <use style="fill:#a1c9f4;fill-opacity:0.8;stroke:#a1c9f4;stroke-opacity:0.8;" x="196.578923" xlink:href="#m616f555743" y="90.415637"/>
     <use style="fill:#a1c9f4;fill-opacity:0.8;stroke:#a1c9f4;stroke-opacity:0.8;" x="196.031672" xlink:href="#m616f555743" y="118.142353"/>
     <use style="fill:#a1c9f4;fill-opacity:0.8;stroke:#a1c9f4;stroke-opacity:0.8;" x="197.540759" xlink:href="#m616f555743" y="132.419262"/>
     <use style="fill:#a1c9f4;fill-opacity:0.8;stroke:#a1c9f4;stroke-opacity:0.8;" x="194.414792" xlink:href="#m616f555743" y="119.075145"/>
     <use style="fill:#a1c9f4;fill-opacity:0.8;stroke:#a1c9f4;stroke-opacity:0.8;" x="198.723558" xlink:href="#m616f555743" y="134.190239"/>
     <use style="fill:#a1c9f4;fill-opacity:0.8;stroke:#a1c9f4;stroke-opacity:0.8;" x="195.935533" xlink:href="#m616f555743" y="122.487032"/>
     <use style="fill:#a1c9f4;fill-opacity:0.8;stroke:#a1c9f4;stroke-opacity:0.8;" x="199.675566" xlink:href="#m616f555743" y="140.688762"/>
     <use style="fill:#a1c9f4;fill-opacity:0.8;stroke:#a1c9f4;stroke-opacity:0.8;" x="197.159544" xlink:href="#m616f555743" y="132.812869"/>
     <use style="fill:#a1c9f4;fill-opacity:0.8;stroke:#a1c9f4;stroke-opacity:0.8;" x="193.867748" xlink:href="#m616f555743" y="125.894828"/>
     <use style="fill:#a1c9f4;fill-opacity:0.8;stroke:#a1c9f4;stroke-opacity:0.8;" x="195.58703" xlink:href="#m616f555743" y="137.986187"/>
     <use style="fill:#a1c9f4;fill-opacity:0.8;stroke:#a1c9f4;stroke-opacity:0.8;" x="192.553003" xlink:href="#m616f555743" y="126.156494"/>
     <use style="fill:#a1c9f4;fill-opacity:0.8;stroke:#a1c9f4;stroke-opacity:0.8;" x="196.944357" xlink:href="#m616f555743" y="138.857952"/>
     <use style="fill:#a1c9f4;fill-opacity:0.8;stroke:#a1c9f4;stroke-opacity:0.8;" x="194.229702" xlink:href="#m616f555743" y="137.408305"/>
     <use style="fill:#a1c9f4;fill-opacity:0.8;stroke:#a1c9f4;stroke-opacity:0.8;" x="198.043147" xlink:href="#m616f555743" y="146.01925"/>
     <use style="fill:#a1c9f4;fill-opacity:0.8;stroke:#a1c9f4;stroke-opacity:0.8;" x="195.58703" xlink:href="#m616f555743" y="138.280071"/>
     <use style="fill:#a1c9f4;fill-opacity:0.8;stroke:#a1c9f4;stroke-opacity:0.8;" x="192.148466" xlink:href="#m616f555743" y="124.193231"/>
     <use style="fill:#a1c9f4;fill-opacity:0.8;stroke:#a1c9f4;stroke-opacity:0.8;" x="194.070016" xlink:href="#m616f555743" y="136.540972"/>
     <use style="fill:#a1c9f4;fill-opacity:0.8;stroke:#a1c9f4;stroke-opacity:0.8;" x="191.035989" xlink:href="#m616f555743" y="124.586157"/>
     <use style="fill:#a1c9f4;fill-opacity:0.8;stroke:#a1c9f4;stroke-opacity:0.8;" x="195.58703" xlink:href="#m616f555743" y="137.488595"/>
     <use style="fill:#a1c9f4;fill-opacity:0.8;stroke:#a1c9f4;stroke-opacity:0.8;" x="192.872374" xlink:href="#m616f555743" y="136.059063"/>
     <use style="fill:#a1c9f4;fill-opacity:0.8;stroke:#a1c9f4;stroke-opacity:0.8;" x="196.815088" xlink:href="#m616f555743" y="145.632291"/>
     <use style="fill:#a1c9f4;fill-opacity:0.8;stroke:#a1c9f4;stroke-opacity:0.8;" x="194.358971" xlink:href="#m616f555743" y="136.99697"/>
     <use style="fill:#a1c9f4;fill-opacity:0.8;stroke:#a1c9f4;stroke-opacity:0.8;" x="165.499596" xlink:href="#m616f555743" y="150.038679"/>
     <use style="fill:#a1c9f4;fill-opacity:0.8;stroke:#a1c9f4;stroke-opacity:0.8;" x="190.429184" xlink:href="#m616f555743" y="116.275063"/>
     <use style="fill:#a1c9f4;fill-opacity:0.8;stroke:#a1c9f4;stroke-opacity:0.8;" x="192.553003" xlink:href="#m616f555743" y="130.856426"/>
     <use style="fill:#a1c9f4;fill-opacity:0.8;stroke:#a1c9f4;stroke-opacity:0.8;" x="189.518976" xlink:href="#m616f555743" y="117.364685"/>
     <use style="fill:#a1c9f4;fill-opacity:0.8;stroke:#a1c9f4;stroke-opacity:0.8;" x="194.229702" xlink:href="#m616f555743" y="132.722693"/>
     <use style="fill:#a1c9f4;fill-opacity:0.8;stroke:#a1c9f4;stroke-opacity:0.8;" x="191.515046" xlink:href="#m616f555743" y="120.897603"/>
     <use style="fill:#a1c9f4;fill-opacity:0.8;stroke:#a1c9f4;stroke-opacity:0.8;" x="195.58703" xlink:href="#m616f555743" y="140.261062"/>
     <use style="fill:#a1c9f4;fill-opacity:0.8;stroke:#a1c9f4;stroke-opacity:0.8;" x="193.130913" xlink:href="#m616f555743" y="132.351758"/>
     <use style="fill:#a1c9f4;fill-opacity:0.8;stroke:#a1c9f4;stroke-opacity:0.8;" x="131.113957" xlink:href="#m616f555743" y="142.004764"/>
     <use style="fill:#a1c9f4;fill-opacity:0.8;stroke:#a1c9f4;stroke-opacity:0.8;" x="199.271205" xlink:href="#m616f555743" y="98.446313"/>
     <use style="fill:#a1c9f4;fill-opacity:0.8;stroke:#a1c9f4;stroke-opacity:0.8;" x="199.271205" xlink:href="#m616f555743" y="91.777835"/>
     <use style="fill:#a1c9f4;fill-opacity:0.8;stroke:#a1c9f4;stroke-opacity:0.8;" x="195.58703" xlink:href="#m616f555743" y="101.241282"/>
     <use style="fill:#a1c9f4;fill-opacity:0.8;stroke:#a1c9f4;stroke-opacity:0.8;" x="195.58703" xlink:href="#m616f555743" y="90.751626"/>
    </g>
   </g>
   <g id="PolyCollection_1">
    <defs>
     <path d="M 49.8 -162.209056 
L 49.8 -53.071558 
L 51.703203 -54.675663 
L 53.606407 -56.279768 
L 55.50961 -57.883872 
L 57.412814 -59.487977 
L 59.316017 -61.092082 
L 61.219221 -62.696187 
L 63.122424 -64.300291 
L 65.025628 -65.904396 
L 66.928831 -67.508501 
L 68.832035 -69.112818 
L 70.735238 -70.686846 
L 72.638442 -72.183366 
L 74.541645 -73.679886 
L 76.444848 -75.176406 
L 78.348052 -76.672926 
L 80.251255 -78.169446 
L 82.154459 -79.665966 
L 84.057662 -81.235809 
L 85.960866 -82.821263 
L 87.864069 -84.408509 
L 89.767273 -85.995843 
L 91.670476 -87.583177 
L 93.57368 -89.170511 
L 95.476883 -90.757845 
L 97.380087 -92.345179 
L 99.28329 -93.932513 
L 101.186494 -95.520692 
L 103.089697 -97.10969 
L 104.9929 -98.698687 
L 106.896104 -100.287684 
L 108.799307 -101.876681 
L 110.702511 -103.465679 
L 112.605714 -105.055521 
L 114.508918 -106.69023 
L 116.412121 -108.324939 
L 118.315325 -109.959649 
L 120.218528 -111.594358 
L 122.121732 -113.229068 
L 124.024935 -114.863777 
L 125.928139 -116.498486 
L 127.831342 -118.133196 
L 129.734545 -119.767905 
L 131.637749 -121.402614 
L 133.540952 -122.961911 
L 135.444156 -124.455979 
L 137.347359 -125.950047 
L 139.250563 -127.444115 
L 141.153766 -128.938182 
L 143.05697 -130.458669 
L 144.960173 -132.04406 
L 146.863377 -133.629492 
L 148.76658 -135.217655 
L 150.669784 -136.805818 
L 152.572987 -138.393981 
L 154.47619 -139.982144 
L 156.379394 -141.570307 
L 158.282597 -143.15847 
L 160.185801 -144.746633 
L 162.089004 -146.334796 
L 163.992208 -147.836535 
L 165.895411 -149.433957 
L 167.798615 -151.037643 
L 169.701818 -152.64201 
L 171.605022 -154.248036 
L 173.508225 -155.863773 
L 175.411429 -157.454531 
L 177.314632 -159.068477 
L 179.217835 -160.850074 
L 181.121039 -162.383547 
L 183.024242 -163.898678 
L 184.927446 -165.31455 
L 186.830649 -166.587481 
L 188.733853 -167.663637 
L 190.637056 -168.353462 
L 192.54026 -169.408481 
L 194.443463 -170.081056 
L 196.346667 -170.709188 
L 198.24987 -171.198712 
L 200.153074 -171.681183 
L 202.056277 -171.938572 
L 203.959481 -172.302698 
L 205.862684 -172.773495 
L 207.765887 -173.010315 
L 209.669091 -173.200132 
L 211.572294 -173.553319 
L 213.475498 -174.038623 
L 215.378701 -174.304598 
L 217.281905 -174.547367 
L 219.185108 -174.83192 
L 221.088312 -175.161235 
L 222.991515 -175.363499 
L 224.894719 -175.763259 
L 226.797922 -175.952844 
L 228.701126 -176.147781 
L 230.604329 -176.357911 
L 232.507532 -176.576301 
L 234.410736 -176.707627 
L 236.313939 -176.939208 
L 238.217143 -177.039139 
L 238.217143 -211.983274 
L 238.217143 -211.983274 
L 236.313939 -210.383805 
L 234.410736 -208.909561 
L 232.507532 -207.435317 
L 230.604329 -205.961074 
L 228.701126 -204.425811 
L 226.797922 -202.830777 
L 224.894719 -201.235743 
L 222.991515 -199.656795 
L 221.088312 -198.129221 
L 219.185108 -196.438979 
L 217.281905 -194.842122 
L 215.378701 -193.238104 
L 213.475498 -191.431985 
L 211.572294 -189.973001 
L 209.669091 -188.489349 
L 207.765887 -186.911307 
L 205.862684 -185.462528 
L 203.959481 -184.048127 
L 202.056277 -182.583877 
L 200.153074 -181.448171 
L 198.24987 -180.398722 
L 196.346667 -179.623813 
L 194.443463 -178.82297 
L 192.54026 -178.099488 
L 190.637056 -177.568005 
L 188.733853 -177.080133 
L 186.830649 -176.583548 
L 184.927446 -176.063444 
L 183.024242 -175.660685 
L 181.121039 -175.253012 
L 179.217835 -174.864164 
L 177.314632 -174.485791 
L 175.411429 -174.114562 
L 173.508225 -173.886771 
L 171.605022 -173.741365 
L 169.701818 -173.445349 
L 167.798615 -173.253724 
L 165.895411 -173.146821 
L 163.992208 -172.956875 
L 162.089004 -172.717461 
L 160.185801 -172.622878 
L 158.282597 -172.435829 
L 156.379394 -172.244432 
L 154.47619 -171.996479 
L 152.572987 -171.748526 
L 150.669784 -171.495837 
L 148.76658 -171.118836 
L 146.863377 -170.907758 
L 144.960173 -170.748005 
L 143.05697 -170.501565 
L 141.153766 -170.251386 
L 139.250563 -170.0881 
L 137.347359 -169.802118 
L 135.444156 -169.512518 
L 133.540952 -169.252129 
L 131.637749 -169.001169 
L 129.734545 -168.737121 
L 127.831342 -168.509275 
L 125.928139 -168.39742 
L 124.024935 -168.22951 
L 122.121732 -168.061599 
L 120.218528 -167.893689 
L 118.315325 -167.725209 
L 116.412121 -167.577673 
L 114.508918 -167.429201 
L 112.605714 -167.207971 
L 110.702511 -167.007848 
L 108.799307 -166.834553 
L 106.896104 -166.698136 
L 104.9929 -166.53762 
L 103.089697 -166.389728 
L 101.186494 -166.240454 
L 99.28329 -166.091143 
L 97.380087 -165.941832 
L 95.476883 -165.792521 
L 93.57368 -165.64321 
L 91.670476 -165.493899 
L 89.767273 -165.344588 
L 87.864069 -165.195277 
L 85.960866 -165.132629 
L 84.057662 -165.089311 
L 82.154459 -164.958677 
L 80.251255 -164.781712 
L 78.348052 -164.596077 
L 76.444848 -164.410441 
L 74.541645 -164.224806 
L 72.638442 -164.03917 
L 70.735238 -163.853535 
L 68.832035 -163.702166 
L 66.928831 -163.552855 
L 65.025628 -163.403544 
L 63.122424 -163.254233 
L 61.219221 -163.104922 
L 59.316017 -162.955611 
L 57.412814 -162.8063 
L 55.50961 -162.656989 
L 53.606407 -162.507678 
L 51.703203 -162.358367 
L 49.8 -162.209056 
z
" id="md963763c47" style="stroke:#ffffff;stroke-opacity:0.15;"/>
    </defs>
    <g clip-path="url(#pefb1a70130)">
     <use style="fill:#a1c9f4;fill-opacity:0.15;stroke:#ffffff;stroke-opacity:0.15;" x="0" xlink:href="#md963763c47" y="288"/>
    </g>
   </g>
   <g id="line2d_1">
    <path clip-path="url(#pefb1a70130)" d="M 49.8 156.737447 
L 51.703203 156.169221 
L 53.606407 155.600994 
L 55.50961 155.032767 
L 57.412814 154.464541 
L 59.316017 153.896314 
L 61.219221 153.328087 
L 63.122424 152.759861 
L 65.025628 152.191634 
L 66.928831 151.623408 
L 68.832035 151.055181 
L 70.735238 150.486954 
L 72.638442 149.918728 
L 74.541645 149.350501 
L 76.444848 148.782274 
L 78.348052 148.214048 
L 80.251255 147.645821 
L 82.154459 147.077595 
L 84.057662 146.509368 
L 85.960866 145.941141 
L 87.864069 145.372915 
L 89.767273 144.804688 
L 91.670476 144.236461 
L 93.57368 143.668235 
L 95.476883 143.100008 
L 97.380087 142.531781 
L 99.28329 141.963555 
L 101.186494 141.395328 
L 103.089697 140.827102 
L 104.9929 140.258875 
L 106.896104 139.690648 
L 108.799307 139.122422 
L 110.702511 138.554195 
L 112.605714 137.985968 
L 114.508918 137.417742 
L 116.412121 136.849515 
L 118.315325 136.281289 
L 120.218528 135.713062 
L 122.121732 135.144835 
L 124.024935 134.576609 
L 125.928139 134.008382 
L 127.831342 133.440155 
L 129.734545 132.871929 
L 131.637749 132.303702 
L 133.540952 131.735475 
L 135.444156 131.167249 
L 137.347359 130.599022 
L 139.250563 130.030796 
L 141.153766 129.462569 
L 143.05697 128.894342 
L 144.960173 128.326116 
L 146.863377 127.757889 
L 148.76658 127.189662 
L 150.669784 126.621436 
L 152.572987 126.053209 
L 154.47619 125.484983 
L 156.379394 124.916756 
L 158.282597 124.348529 
L 160.185801 123.780303 
L 162.089004 123.212076 
L 163.992208 122.643849 
L 165.895411 122.075623 
L 167.798615 121.507396 
L 169.701818 120.939169 
L 171.605022 120.370943 
L 173.508225 119.802716 
L 175.411429 119.23449 
L 177.314632 118.666263 
L 179.217835 118.098036 
L 181.121039 117.52981 
L 183.024242 116.961583 
L 184.927446 116.393356 
L 186.830649 115.82513 
L 188.733853 115.256903 
L 190.637056 114.688677 
L 192.54026 114.12045 
L 194.443463 113.552223 
L 196.346667 112.983997 
L 198.24987 112.41577 
L 200.153074 111.847543 
L 202.056277 111.279317 
L 203.959481 110.71109 
L 205.862684 110.142863 
L 207.765887 109.574637 
L 209.669091 109.00641 
L 211.572294 108.438184 
L 213.475498 107.869957 
L 215.378701 107.30173 
L 217.281905 106.733504 
L 219.185108 106.165277 
L 221.088312 105.59705 
L 222.991515 105.028824 
L 224.894719 104.460597 
L 226.797922 103.892371 
L 228.701126 103.324144 
L 230.604329 102.755917 
L 232.507532 102.187691 
L 234.410736 101.619464 
L 236.313939 101.051237 
L 238.217143 100.483011 
" style="fill:none;stroke:#a1c9f4;stroke-linecap:round;stroke-width:2.25;"/>
   </g>
   <g id="patch_3">
    <path d="M 49.8 243.7 
L 49.8 50.725714 
" style="fill:none;stroke:#262626;stroke-linecap:square;stroke-linejoin:miter;stroke-width:1.25;"/>
   </g>
   <g id="patch_4">
    <path d="M 49.8 243.7 
L 238.217143 243.7 
" style="fill:none;stroke:#262626;stroke-linecap:square;stroke-linejoin:miter;stroke-width:1.25;"/>
   </g>
  </g>
  <g id="axes_2">
   <g id="patch_5">
    <path d="M 49.8 44.071429 
L 238.217143 44.071429 
L 238.217143 10.8 
L 49.8 10.8 
z
" style="fill:#ffffff;"/>
   </g>
   <g id="matplotlib.axis_3">
    <g id="xtick_5"/>
    <g id="xtick_6"/>
    <g id="xtick_7"/>
    <g id="xtick_8"/>
   </g>
   <g id="matplotlib.axis_4">
    <g id="ytick_6"/>
    <g id="ytick_7"/>
   </g>
   <g id="patch_6">
    <path clip-path="url(#p3dec484332)" d="M 79.535499 44.071429 
L 82.114422 44.071429 
L 82.114422 42.939747 
L 79.535499 42.939747 
z
" style="fill:#a1c9f4;opacity:0.4;stroke:#ffffff;stroke-linejoin:miter;"/>
   </g>
   <g id="patch_7">
    <path clip-path="url(#p3dec484332)" d="M 82.114422 44.071429 
L 84.693344 44.071429 
L 84.693344 44.071429 
L 82.114422 44.071429 
z
" style="fill:#a1c9f4;opacity:0.4;stroke:#ffffff;stroke-linejoin:miter;"/>
   </g>
   <g id="patch_8">
    <path clip-path="url(#p3dec484332)" d="M 84.693344 44.071429 
L 87.272267 44.071429 
L 87.272267 44.071429 
L 84.693344 44.071429 
z
" style="fill:#a1c9f4;opacity:0.4;stroke:#ffffff;stroke-linejoin:miter;"/>
   </g>
   <g id="patch_9">
    <path clip-path="url(#p3dec484332)" d="M 87.272267 44.071429 
L 89.85119 44.071429 
L 89.85119 44.071429 
L 87.272267 44.071429 
z
" style="fill:#a1c9f4;opacity:0.4;stroke:#ffffff;stroke-linejoin:miter;"/>
   </g>
   <g id="patch_10">
    <path clip-path="url(#p3dec484332)" d="M 89.85119 44.071429 
L 92.430113 44.071429 
L 92.430113 44.071429 
L 89.85119 44.071429 
z
" style="fill:#a1c9f4;opacity:0.4;stroke:#ffffff;stroke-linejoin:miter;"/>
   </g>
   <g id="patch_11">
    <path clip-path="url(#p3dec484332)" d="M 92.430113 44.071429 
L 95.009036 44.071429 
L 95.009036 44.071429 
L 92.430113 44.071429 
z
" style="fill:#a1c9f4;opacity:0.4;stroke:#ffffff;stroke-linejoin:miter;"/>
   </g>
   <g id="patch_12">
    <path clip-path="url(#p3dec484332)" d="M 95.009036 44.071429 
L 97.587959 44.071429 
L 97.587959 44.071429 
L 95.009036 44.071429 
z
" style="fill:#a1c9f4;opacity:0.4;stroke:#ffffff;stroke-linejoin:miter;"/>
   </g>
   <g id="patch_13">
    <path clip-path="url(#p3dec484332)" d="M 97.587959 44.071429 
L 100.166882 44.071429 
L 100.166882 44.071429 
L 97.587959 44.071429 
z
" style="fill:#a1c9f4;opacity:0.4;stroke:#ffffff;stroke-linejoin:miter;"/>
   </g>
   <g id="patch_14">
    <path clip-path="url(#p3dec484332)" d="M 100.166882 44.071429 
L 102.745805 44.071429 
L 102.745805 44.071429 
L 100.166882 44.071429 
z
" style="fill:#a1c9f4;opacity:0.4;stroke:#ffffff;stroke-linejoin:miter;"/>
   </g>
   <g id="patch_15">
    <path clip-path="url(#p3dec484332)" d="M 102.745805 44.071429 
L 105.324728 44.071429 
L 105.324728 44.071429 
L 102.745805 44.071429 
z
" style="fill:#a1c9f4;opacity:0.4;stroke:#ffffff;stroke-linejoin:miter;"/>
   </g>
   <g id="patch_16">
    <path clip-path="url(#p3dec484332)" d="M 105.324728 44.071429 
L 107.903651 44.071429 
L 107.903651 44.071429 
L 105.324728 44.071429 
z
" style="fill:#a1c9f4;opacity:0.4;stroke:#ffffff;stroke-linejoin:miter;"/>
   </g>
   <g id="patch_17">
    <path clip-path="url(#p3dec484332)" d="M 107.903651 44.071429 
L 110.482574 44.071429 
L 110.482574 44.071429 
L 107.903651 44.071429 
z
" style="fill:#a1c9f4;opacity:0.4;stroke:#ffffff;stroke-linejoin:miter;"/>
   </g>
   <g id="patch_18">
    <path clip-path="url(#p3dec484332)" d="M 110.482574 44.071429 
L 113.061497 44.071429 
L 113.061497 44.071429 
L 110.482574 44.071429 
z
" style="fill:#a1c9f4;opacity:0.4;stroke:#ffffff;stroke-linejoin:miter;"/>
   </g>
   <g id="patch_19">
    <path clip-path="url(#p3dec484332)" d="M 113.061497 44.071429 
L 115.640419 44.071429 
L 115.640419 44.071429 
L 113.061497 44.071429 
z
" style="fill:#a1c9f4;opacity:0.4;stroke:#ffffff;stroke-linejoin:miter;"/>
   </g>
   <g id="patch_20">
    <path clip-path="url(#p3dec484332)" d="M 115.640419 44.071429 
L 118.219342 44.071429 
L 118.219342 44.071429 
L 115.640419 44.071429 
z
" style="fill:#a1c9f4;opacity:0.4;stroke:#ffffff;stroke-linejoin:miter;"/>
   </g>
   <g id="patch_21">
    <path clip-path="url(#p3dec484332)" d="M 118.219342 44.071429 
L 120.798265 44.071429 
L 120.798265 44.071429 
L 118.219342 44.071429 
z
" style="fill:#a1c9f4;opacity:0.4;stroke:#ffffff;stroke-linejoin:miter;"/>
   </g>
   <g id="patch_22">
    <path clip-path="url(#p3dec484332)" d="M 120.798265 44.071429 
L 123.377188 44.071429 
L 123.377188 44.071429 
L 120.798265 44.071429 
z
" style="fill:#a1c9f4;opacity:0.4;stroke:#ffffff;stroke-linejoin:miter;"/>
   </g>
   <g id="patch_23">
    <path clip-path="url(#p3dec484332)" d="M 123.377188 44.071429 
L 125.956111 44.071429 
L 125.956111 44.071429 
L 123.377188 44.071429 
z
" style="fill:#a1c9f4;opacity:0.4;stroke:#ffffff;stroke-linejoin:miter;"/>
   </g>
   <g id="patch_24">
    <path clip-path="url(#p3dec484332)" d="M 125.956111 44.071429 
L 128.535034 44.071429 
L 128.535034 44.071429 
L 125.956111 44.071429 
z
" style="fill:#a1c9f4;opacity:0.4;stroke:#ffffff;stroke-linejoin:miter;"/>
   </g>
   <g id="patch_25">
    <path clip-path="url(#p3dec484332)" d="M 128.535034 44.071429 
L 131.113957 44.071429 
L 131.113957 44.071429 
L 128.535034 44.071429 
z
" style="fill:#a1c9f4;opacity:0.4;stroke:#ffffff;stroke-linejoin:miter;"/>
   </g>
   <g id="patch_26">
    <path clip-path="url(#p3dec484332)" d="M 131.113957 44.071429 
L 133.69288 44.071429 
L 133.69288 42.939747 
L 131.113957 42.939747 
z
" style="fill:#a1c9f4;opacity:0.4;stroke:#ffffff;stroke-linejoin:miter;"/>
   </g>
   <g id="patch_27">
    <path clip-path="url(#p3dec484332)" d="M 133.69288 44.071429 
L 136.271803 44.071429 
L 136.271803 44.071429 
L 133.69288 44.071429 
z
" style="fill:#a1c9f4;opacity:0.4;stroke:#ffffff;stroke-linejoin:miter;"/>
   </g>
   <g id="patch_28">
    <path clip-path="url(#p3dec484332)" d="M 136.271803 44.071429 
L 138.850726 44.071429 
L 138.850726 44.071429 
L 136.271803 44.071429 
z
" style="fill:#a1c9f4;opacity:0.4;stroke:#ffffff;stroke-linejoin:miter;"/>
   </g>
   <g id="patch_29">
    <path clip-path="url(#p3dec484332)" d="M 138.850726 44.071429 
L 141.429649 44.071429 
L 141.429649 44.071429 
L 138.850726 44.071429 
z
" style="fill:#a1c9f4;opacity:0.4;stroke:#ffffff;stroke-linejoin:miter;"/>
   </g>
   <g id="patch_30">
    <path clip-path="url(#p3dec484332)" d="M 141.429649 44.071429 
L 144.008571 44.071429 
L 144.008571 44.071429 
L 141.429649 44.071429 
z
" style="fill:#a1c9f4;opacity:0.4;stroke:#ffffff;stroke-linejoin:miter;"/>
   </g>
   <g id="patch_31">
    <path clip-path="url(#p3dec484332)" d="M 144.008571 44.071429 
L 146.587494 44.071429 
L 146.587494 42.939747 
L 144.008571 42.939747 
z
" style="fill:#a1c9f4;opacity:0.4;stroke:#ffffff;stroke-linejoin:miter;"/>
   </g>
   <g id="patch_32">
    <path clip-path="url(#p3dec484332)" d="M 146.587494 44.071429 
L 149.166417 44.071429 
L 149.166417 42.939747 
L 146.587494 42.939747 
z
" style="fill:#a1c9f4;opacity:0.4;stroke:#ffffff;stroke-linejoin:miter;"/>
   </g>
   <g id="patch_33">
    <path clip-path="url(#p3dec484332)" d="M 149.166417 44.071429 
L 151.74534 44.071429 
L 151.74534 44.071429 
L 149.166417 44.071429 
z
" style="fill:#a1c9f4;opacity:0.4;stroke:#ffffff;stroke-linejoin:miter;"/>
   </g>
   <g id="patch_34">
    <path clip-path="url(#p3dec484332)" d="M 151.74534 44.071429 
L 154.324263 44.071429 
L 154.324263 44.071429 
L 151.74534 44.071429 
z
" style="fill:#a1c9f4;opacity:0.4;stroke:#ffffff;stroke-linejoin:miter;"/>
   </g>
   <g id="patch_35">
    <path clip-path="url(#p3dec484332)" d="M 154.324263 44.071429 
L 156.903186 44.071429 
L 156.903186 44.071429 
L 154.324263 44.071429 
z
" style="fill:#a1c9f4;opacity:0.4;stroke:#ffffff;stroke-linejoin:miter;"/>
   </g>
   <g id="patch_36">
    <path clip-path="url(#p3dec484332)" d="M 156.903186 44.071429 
L 159.482109 44.071429 
L 159.482109 44.071429 
L 156.903186 44.071429 
z
" style="fill:#a1c9f4;opacity:0.4;stroke:#ffffff;stroke-linejoin:miter;"/>
   </g>
   <g id="patch_37">
    <path clip-path="url(#p3dec484332)" d="M 159.482109 44.071429 
L 162.061032 44.071429 
L 162.061032 44.071429 
L 159.482109 44.071429 
z
" style="fill:#a1c9f4;opacity:0.4;stroke:#ffffff;stroke-linejoin:miter;"/>
   </g>
   <g id="patch_38">
    <path clip-path="url(#p3dec484332)" d="M 162.061032 44.071429 
L 164.639955 44.071429 
L 164.639955 41.808066 
L 162.061032 41.808066 
z
" style="fill:#a1c9f4;opacity:0.4;stroke:#ffffff;stroke-linejoin:miter;"/>
   </g>
   <g id="patch_39">
    <path clip-path="url(#p3dec484332)" d="M 164.639955 44.071429 
L 167.218878 44.071429 
L 167.218878 42.939747 
L 164.639955 42.939747 
z
" style="fill:#a1c9f4;opacity:0.4;stroke:#ffffff;stroke-linejoin:miter;"/>
   </g>
   <g id="patch_40">
    <path clip-path="url(#p3dec484332)" d="M 167.218878 44.071429 
L 169.797801 44.071429 
L 169.797801 44.071429 
L 167.218878 44.071429 
z
" style="fill:#a1c9f4;opacity:0.4;stroke:#ffffff;stroke-linejoin:miter;"/>
   </g>
   <g id="patch_41">
    <path clip-path="url(#p3dec484332)" d="M 169.797801 44.071429 
L 172.376723 44.071429 
L 172.376723 44.071429 
L 169.797801 44.071429 
z
" style="fill:#a1c9f4;opacity:0.4;stroke:#ffffff;stroke-linejoin:miter;"/>
   </g>
   <g id="patch_42">
    <path clip-path="url(#p3dec484332)" d="M 172.376723 44.071429 
L 174.955646 44.071429 
L 174.955646 44.071429 
L 172.376723 44.071429 
z
" style="fill:#a1c9f4;opacity:0.4;stroke:#ffffff;stroke-linejoin:miter;"/>
   </g>
   <g id="patch_43">
    <path clip-path="url(#p3dec484332)" d="M 174.955646 44.071429 
L 177.534569 44.071429 
L 177.534569 44.071429 
L 174.955646 44.071429 
z
" style="fill:#a1c9f4;opacity:0.4;stroke:#ffffff;stroke-linejoin:miter;"/>
   </g>
   <g id="patch_44">
    <path clip-path="url(#p3dec484332)" d="M 177.534569 44.071429 
L 180.113492 44.071429 
L 180.113492 44.071429 
L 177.534569 44.071429 
z
" style="fill:#a1c9f4;opacity:0.4;stroke:#ffffff;stroke-linejoin:miter;"/>
   </g>
   <g id="patch_45">
    <path clip-path="url(#p3dec484332)" d="M 180.113492 44.071429 
L 182.692415 44.071429 
L 182.692415 44.071429 
L 180.113492 44.071429 
z
" style="fill:#a1c9f4;opacity:0.4;stroke:#ffffff;stroke-linejoin:miter;"/>
   </g>
   <g id="patch_46">
    <path clip-path="url(#p3dec484332)" d="M 182.692415 44.071429 
L 185.271338 44.071429 
L 185.271338 42.939747 
L 182.692415 42.939747 
z
" style="fill:#a1c9f4;opacity:0.4;stroke:#ffffff;stroke-linejoin:miter;"/>
   </g>
   <g id="patch_47">
    <path clip-path="url(#p3dec484332)" d="M 185.271338 44.071429 
L 187.850261 44.071429 
L 187.850261 42.939747 
L 185.271338 42.939747 
z
" style="fill:#a1c9f4;opacity:0.4;stroke:#ffffff;stroke-linejoin:miter;"/>
   </g>
   <g id="patch_48">
    <path clip-path="url(#p3dec484332)" d="M 187.850261 44.071429 
L 190.429184 44.071429 
L 190.429184 40.676385 
L 187.850261 40.676385 
z
" style="fill:#a1c9f4;opacity:0.4;stroke:#ffffff;stroke-linejoin:miter;"/>
   </g>
   <g id="patch_49">
    <path clip-path="url(#p3dec484332)" d="M 190.429184 44.071429 
L 193.008107 44.071429 
L 193.008107 32.754616 
L 190.429184 32.754616 
z
" style="fill:#a1c9f4;opacity:0.4;stroke:#ffffff;stroke-linejoin:miter;"/>
   </g>
   <g id="patch_50">
    <path clip-path="url(#p3dec484332)" d="M 193.008107 44.071429 
L 195.58703 44.071429 
L 195.58703 22.569485 
L 193.008107 22.569485 
z
" style="fill:#a1c9f4;opacity:0.4;stroke:#ffffff;stroke-linejoin:miter;"/>
   </g>
   <g id="patch_51">
    <path clip-path="url(#p3dec484332)" d="M 195.58703 44.071429 
L 198.165953 44.071429 
L 198.165953 12.384354 
L 195.58703 12.384354 
z
" style="fill:#a1c9f4;opacity:0.4;stroke:#ffffff;stroke-linejoin:miter;"/>
   </g>
   <g id="patch_52">
    <path clip-path="url(#p3dec484332)" d="M 198.165953 44.071429 
L 200.744875 44.071429 
L 200.744875 29.359572 
L 198.165953 29.359572 
z
" style="fill:#a1c9f4;opacity:0.4;stroke:#ffffff;stroke-linejoin:miter;"/>
   </g>
   <g id="patch_53">
    <path clip-path="url(#p3dec484332)" d="M 200.744875 44.071429 
L 203.323798 44.071429 
L 203.323798 41.808066 
L 200.744875 41.808066 
z
" style="fill:#a1c9f4;opacity:0.4;stroke:#ffffff;stroke-linejoin:miter;"/>
   </g>
   <g id="patch_54">
    <path clip-path="url(#p3dec484332)" d="M 203.323798 44.071429 
L 205.902721 44.071429 
L 205.902721 44.071429 
L 203.323798 44.071429 
z
" style="fill:#a1c9f4;opacity:0.4;stroke:#ffffff;stroke-linejoin:miter;"/>
   </g>
   <g id="patch_55">
    <path clip-path="url(#p3dec484332)" d="M 205.902721 44.071429 
L 208.481644 44.071429 
L 208.481644 42.939747 
L 205.902721 42.939747 
z
" style="fill:#a1c9f4;opacity:0.4;stroke:#ffffff;stroke-linejoin:miter;"/>
   </g>
   <g id="line2d_2">
    <path clip-path="url(#p3dec484332)" d="M 58.364416 44.069507 
L 60.094601 44.067571 
L 61.824786 44.064129 
L 63.55497 44.058413 
L 65.285155 44.049558 
L 67.01534 44.0368 
L 68.745525 44.019761 
L 70.47571 43.998784 
L 72.205895 43.975181 
L 73.93608 43.951263 
L 75.666265 43.930054 
L 77.39645 43.914694 
L 79.126635 43.907686 
L 80.85682 43.910231 
L 82.587005 43.921889 
L 84.31719 43.940704 
L 86.047375 43.963742 
L 87.77756 43.987836 
L 89.507745 44.010282 
L 91.23793 44.02928 
L 92.968115 44.044051 
L 94.6983 44.054671 
L 96.428485 44.061762 
L 98.15867 44.066172 
L 99.888855 44.068728 
L 101.61904 44.070101 
L 103.349225 44.07076 
L 105.07941 44.070978 
L 106.809595 44.070859 
L 108.53978 44.070344 
L 110.269965 44.069211 
L 112.00015 44.067045 
L 113.730335 44.063227 
L 115.460519 44.056951 
L 117.190704 44.047323 
L 118.920889 44.033559 
L 120.651074 44.015257 
L 122.381259 43.992675 
L 124.111444 43.966877 
L 125.841629 43.939644 
L 127.571814 43.913067 
L 129.301999 43.888924 
L 131.032184 43.868054 
L 132.762369 43.850027 
L 134.492554 43.833311 
L 136.222739 43.815963 
L 137.952924 43.796585 
L 139.683109 43.775125 
L 141.413294 43.753113 
L 143.143479 43.733142 
L 144.873664 43.717742 
L 146.603849 43.708089 
L 148.334034 43.703141 
L 150.064219 43.699633 
L 151.794404 43.693094 
L 153.524589 43.679565 
L 155.254774 43.657407 
L 156.984959 43.628467 
L 158.715144 43.59805 
L 160.445329 43.573575 
L 162.175514 43.562276 
L 163.905699 43.56868 
L 165.635884 43.592607 
L 167.366068 43.628176 
L 169.096253 43.663803 
L 170.826438 43.68271 
L 172.556623 43.663304 
L 174.286808 43.579003 
L 176.016993 43.397674 
L 177.747178 43.08161 
L 179.477363 42.589574 
L 181.207548 41.882491 
L 182.937733 40.933531 
L 184.667918 39.741624 
L 186.398103 38.345153 
L 188.128288 36.830724 
L 189.858473 35.331588 
L 191.588658 34.012354 
L 193.318843 33.040953 
L 195.049028 32.553931 
L 196.779213 32.624904 
L 198.509398 33.246245 
L 200.239583 34.330325 
L 201.969768 35.730102 
L 203.699953 37.272336 
L 205.430138 38.793017 
L 207.160323 40.165006 
L 208.890508 41.311891 
L 210.620693 42.207498 
L 212.350878 42.864927 
L 214.081063 43.321019 
L 215.811248 43.6216 
L 217.541433 43.810754 
L 219.271617 43.925005 
L 221.001802 43.991561 
L 222.731987 44.029102 
L 224.462172 44.049654 
L 226.192357 44.060579 
L 227.922542 44.066209 
L 229.652727 44.069013 
" style="fill:none;stroke:#a1c9f4;stroke-linecap:round;stroke-width:1.5;"/>
   </g>
   <g id="patch_56">
    <path d="M 49.8 44.071429 
L 238.217143 44.071429 
" style="fill:none;stroke:#262626;stroke-linecap:square;stroke-linejoin:miter;stroke-width:1.25;"/>
   </g>
  </g>
  <g id="axes_3">
   <g id="patch_57">
    <path d="M 244.714286 243.7 
L 277.2 243.7 
L 277.2 50.725714 
L 244.714286 50.725714 
z
" style="fill:#ffffff;"/>
   </g>
   <g id="matplotlib.axis_5">
    <g id="xtick_9"/>
    <g id="xtick_10"/>
   </g>
   <g id="matplotlib.axis_6">
    <g id="ytick_8"/>
    <g id="ytick_9"/>
    <g id="ytick_10"/>
    <g id="ytick_11"/>
    <g id="ytick_12"/>
   </g>
   <g id="patch_58">
    <path clip-path="url(#pf9b7e7c6cb)" d="M 244.714286 150.178632 
L 264.782681 150.178632 
L 264.782681 133.989557 
L 244.714286 133.989557 
z
" style="fill:#a1c9f4;opacity:0.4;stroke:#ffffff;stroke-linejoin:miter;"/>
   </g>
   <g id="patch_59">
    <path clip-path="url(#pf9b7e7c6cb)" d="M 244.714286 133.989557 
L 258.093216 133.989557 
L 258.093216 117.800482 
L 244.714286 117.800482 
z
" style="fill:#a1c9f4;opacity:0.4;stroke:#ffffff;stroke-linejoin:miter;"/>
   </g>
   <g id="patch_60">
    <path clip-path="url(#pf9b7e7c6cb)" d="M 244.714286 117.800482 
L 251.403751 117.800482 
L 251.403751 101.611407 
L 244.714286 101.611407 
z
" style="fill:#a1c9f4;opacity:0.4;stroke:#ffffff;stroke-linejoin:miter;"/>
   </g>
   <g id="patch_61">
    <path clip-path="url(#pf9b7e7c6cb)" d="M 244.714286 101.611407 
L 275.653061 101.611407 
L 275.653061 85.422332 
L 244.714286 85.422332 
z
" style="fill:#a1c9f4;opacity:0.4;stroke:#ffffff;stroke-linejoin:miter;"/>
   </g>
   <g id="line2d_3">
    <path clip-path="url(#pf9b7e7c6cb)" d="M 244.740861 176.103692 
L 244.754501 174.925849 
L 244.774147 173.748006 
L 244.801949 172.570164 
L 244.840615 171.392321 
L 244.893476 170.214479 
L 244.96453 169.036636 
L 245.058463 167.858793 
L 245.180627 166.680951 
L 245.336987 165.503108 
L 245.534004 164.325265 
L 245.778487 163.147423 
L 246.077386 161.96958 
L 246.437543 160.791738 
L 246.86541 159.613895 
L 247.366721 158.436052 
L 247.946143 157.25821 
L 248.606891 156.080367 
L 249.350329 154.902525 
L 250.175546 153.724682 
L 251.078942 152.546839 
L 252.053834 151.368997 
L 253.090129 150.191154 
L 254.17412 149.013311 
L 255.288442 147.835469 
L 256.412285 146.657626 
L 257.521869 145.479784 
L 258.591251 144.301941 
L 259.59343 143.124098 
L 260.501701 141.946256 
L 261.291186 140.768413 
L 261.940391 139.590571 
L 262.432643 138.412728 
L 262.757249 137.234885 
L 262.91024 136.057043 
L 262.894601 134.8792 
L 262.719957 133.701357 
L 262.401745 132.523515 
L 261.959968 131.345672 
L 261.417687 130.16783 
L 260.799436 128.989987 
L 260.129743 127.812144 
L 259.431925 126.634302 
L 258.727269 125.456459 
L 258.034661 124.278617 
L 257.370641 123.100774 
L 256.749801 121.922931 
L 256.185412 120.745089 
L 255.690096 119.567246 
L 255.276411 118.389403 
L 254.957181 117.211561 
L 254.745481 116.033718 
L 254.654239 114.855876 
L 254.695457 113.678033 
L 254.879136 112.50019 
L 255.212026 111.322348 
L 255.696345 110.144505 
L 256.328644 108.966663 
L 257.098947 107.78882 
L 257.990306 106.610977 
L 258.978829 105.433135 
L 260.034214 104.255292 
L 261.120761 103.077449 
L 262.198796 101.899607 
L 263.226399 100.721764 
L 264.161346 99.543922 
L 264.96311 98.366079 
L 265.594835 97.188236 
L 266.02516 96.010394 
L 266.229803 94.832551 
L 266.192819 93.654709 
L 265.907465 92.476866 
L 265.376603 91.299023 
L 264.61261 90.121181 
L 263.636772 88.943338 
L 262.478165 87.765495 
L 261.172098 86.587653 
L 259.758189 85.40981 
L 258.278212 84.231968 
L 256.773876 83.054125 
L 255.284688 81.876282 
L 253.846089 80.69844 
L 252.48797 79.520597 
L 251.23368 78.342755 
L 250.09956 77.164912 
L 249.094998 75.987069 
L 248.222934 74.809227 
L 247.480722 73.631384 
L 246.861226 72.453541 
L 246.354028 71.275699 
L 245.946627 70.097856 
L 245.625527 68.920014 
L 245.377164 67.742171 
L 245.188624 66.564328 
L 245.048139 65.386486 
L 244.945385 64.208643 
L 244.871604 63.030801 
L 244.819596 61.852958 
L 244.783602 60.675115 
L 244.759145 59.497273 
" style="fill:none;stroke:#a1c9f4;stroke-linecap:round;stroke-width:1.5;"/>
   </g>
   <g id="patch_62">
    <path d="M 244.714286 243.7 
L 244.714286 50.725714 
" style="fill:none;stroke:#262626;stroke-linecap:square;stroke-linejoin:miter;stroke-width:1.25;"/>
   </g>
  </g>
  <g id="text_12">
   <!-- $R^2=0.24$ -->
   <defs>
    <path d="M 25.203125 64.796875 
L 20.21875 38.921875 
L 32.90625 38.921875 
Q 40.375 38.921875 44.984375 43.046875 
Q 49.609375 47.171875 49.609375 53.8125 
Q 49.609375 59.125 46.5 61.953125 
Q 43.40625 64.796875 37.59375 64.796875 
z
M 43.3125 35.015625 
Q 46.4375 34.28125 48.515625 31.390625 
Q 50.59375 28.515625 53.328125 19.921875 
L 59.515625 0 
L 49.125 0 
L 43.40625 18.703125 
Q 41.21875 25.921875 38.328125 28.359375 
Q 35.453125 30.8125 29.5 30.8125 
L 18.609375 30.8125 
L 12.59375 0 
L 2.6875 0 
L 16.890625 72.90625 
L 39.109375 72.90625 
Q 49.21875 72.90625 54.609375 68.328125 
Q 60.015625 63.765625 60.015625 55.171875 
Q 60.015625 47.5625 55.421875 41.984375 
Q 50.828125 36.421875 43.3125 35.015625 
z
" id="DejaVuSans-Oblique-82"/>
    <path d="M 19.1875 8.296875 
L 53.609375 8.296875 
L 53.609375 0 
L 7.328125 0 
L 7.328125 8.296875 
Q 12.9375 14.109375 22.625 23.890625 
Q 32.328125 33.6875 34.8125 36.53125 
Q 39.546875 41.84375 41.421875 45.53125 
Q 43.3125 49.21875 43.3125 52.78125 
Q 43.3125 58.59375 39.234375 62.25 
Q 35.15625 65.921875 28.609375 65.921875 
Q 23.96875 65.921875 18.8125 64.3125 
Q 13.671875 62.703125 7.8125 59.421875 
L 7.8125 69.390625 
Q 13.765625 71.78125 18.9375 73 
Q 24.125 74.21875 28.421875 74.21875 
Q 39.75 74.21875 46.484375 68.546875 
Q 53.21875 62.890625 53.21875 53.421875 
Q 53.21875 48.921875 51.53125 44.890625 
Q 49.859375 40.875 45.40625 35.40625 
Q 44.1875 33.984375 37.640625 27.21875 
Q 31.109375 20.453125 19.1875 8.296875 
z
" id="DejaVuSans-50"/>
    <path d="M 10.59375 45.40625 
L 73.1875 45.40625 
L 73.1875 37.203125 
L 10.59375 37.203125 
z
M 10.59375 25.484375 
L 73.1875 25.484375 
L 73.1875 17.1875 
L 10.59375 17.1875 
z
" id="DejaVuSans-61"/>
    <path d="M 31.78125 66.40625 
Q 24.171875 66.40625 20.328125 58.90625 
Q 16.5 51.421875 16.5 36.375 
Q 16.5 21.390625 20.328125 13.890625 
Q 24.171875 6.390625 31.78125 6.390625 
Q 39.453125 6.390625 43.28125 13.890625 
Q 47.125 21.390625 47.125 36.375 
Q 47.125 51.421875 43.28125 58.90625 
Q 39.453125 66.40625 31.78125 66.40625 
z
M 31.78125 74.21875 
Q 44.046875 74.21875 50.515625 64.515625 
Q 56.984375 54.828125 56.984375 36.375 
Q 56.984375 17.96875 50.515625 8.265625 
Q 44.046875 -1.421875 31.78125 -1.421875 
Q 19.53125 -1.421875 13.0625 8.265625 
Q 6.59375 17.96875 6.59375 36.375 
Q 6.59375 54.828125 13.0625 64.515625 
Q 19.53125 74.21875 31.78125 74.21875 
z
" id="DejaVuSans-48"/>
    <path d="M 10.6875 12.40625 
L 21 12.40625 
L 21 0 
L 10.6875 0 
z
" id="DejaVuSans-46"/>
    <path d="M 37.796875 64.3125 
L 12.890625 25.390625 
L 37.796875 25.390625 
z
M 35.203125 72.90625 
L 47.609375 72.90625 
L 47.609375 25.390625 
L 58.015625 25.390625 
L 58.015625 17.1875 
L 47.609375 17.1875 
L 47.609375 0 
L 37.796875 0 
L 37.796875 17.1875 
L 4.890625 17.1875 
L 4.890625 26.703125 
z
" id="DejaVuSans-52"/>
   </defs>
   <g style="fill:#262626;" transform="translate(72 73.70775)scale(0.12 -0.12)">
    <use transform="translate(0 0.765625)" xlink:href="#DejaVuSans-Oblique-82"/>
    <use transform="translate(76.499193 39.046875)scale(0.7)" xlink:href="#DejaVuSans-50"/>
    <use transform="translate(143.252122 0.765625)" xlink:href="#DejaVuSans-61"/>
    <use transform="translate(246.523607 0.765625)" xlink:href="#DejaVuSans-48"/>
    <use transform="translate(310.146654 0.765625)" xlink:href="#DejaVuSans-46"/>
    <use transform="translate(341.855638 0.765625)" xlink:href="#DejaVuSans-50"/>
    <use transform="translate(405.478685 0.765625)" xlink:href="#DejaVuSans-52"/>
   </g>
   <!-- $n=85$ -->
   <defs>
    <path d="M 55.71875 33.015625 
L 49.3125 0 
L 40.28125 0 
L 46.6875 32.671875 
Q 47.125 34.96875 47.359375 36.71875 
Q 47.609375 38.484375 47.609375 39.5 
Q 47.609375 43.609375 45.015625 45.890625 
Q 42.4375 48.1875 37.796875 48.1875 
Q 30.5625 48.1875 25.34375 43.375 
Q 20.125 38.578125 18.5 30.328125 
L 12.5 0 
L 3.515625 0 
L 14.109375 54.6875 
L 23.09375 54.6875 
L 21.296875 46.09375 
Q 25.046875 50.828125 30.3125 53.40625 
Q 35.59375 56 41.40625 56 
Q 48.640625 56 52.609375 52.09375 
Q 56.59375 48.1875 56.59375 41.109375 
Q 56.59375 39.359375 56.375 37.359375 
Q 56.15625 35.359375 55.71875 33.015625 
z
" id="DejaVuSans-Oblique-110"/>
    <path d="M 31.78125 34.625 
Q 24.75 34.625 20.71875 30.859375 
Q 16.703125 27.09375 16.703125 20.515625 
Q 16.703125 13.921875 20.71875 10.15625 
Q 24.75 6.390625 31.78125 6.390625 
Q 38.8125 6.390625 42.859375 10.171875 
Q 46.921875 13.96875 46.921875 20.515625 
Q 46.921875 27.09375 42.890625 30.859375 
Q 38.875 34.625 31.78125 34.625 
z
M 21.921875 38.8125 
Q 15.578125 40.375 12.03125 44.71875 
Q 8.5 49.078125 8.5 55.328125 
Q 8.5 64.0625 14.71875 69.140625 
Q 20.953125 74.21875 31.78125 74.21875 
Q 42.671875 74.21875 48.875 69.140625 
Q 55.078125 64.0625 55.078125 55.328125 
Q 55.078125 49.078125 51.53125 44.71875 
Q 48 40.375 41.703125 38.8125 
Q 48.828125 37.15625 52.796875 32.3125 
Q 56.78125 27.484375 56.78125 20.515625 
Q 56.78125 9.90625 50.3125 4.234375 
Q 43.84375 -1.421875 31.78125 -1.421875 
Q 19.734375 -1.421875 13.25 4.234375 
Q 6.78125 9.90625 6.78125 20.515625 
Q 6.78125 27.484375 10.78125 32.3125 
Q 14.796875 37.15625 21.921875 38.8125 
z
M 18.3125 54.390625 
Q 18.3125 48.734375 21.84375 45.5625 
Q 25.390625 42.390625 31.78125 42.390625 
Q 38.140625 42.390625 41.71875 45.5625 
Q 45.3125 48.734375 45.3125 54.390625 
Q 45.3125 60.0625 41.71875 63.234375 
Q 38.140625 66.40625 31.78125 66.40625 
Q 25.390625 66.40625 21.84375 63.234375 
Q 18.3125 60.0625 18.3125 54.390625 
z
" id="DejaVuSans-56"/>
    <path d="M 10.796875 72.90625 
L 49.515625 72.90625 
L 49.515625 64.59375 
L 19.828125 64.59375 
L 19.828125 46.734375 
Q 21.96875 47.46875 24.109375 47.828125 
Q 26.265625 48.1875 28.421875 48.1875 
Q 40.625 48.1875 47.75 41.5 
Q 54.890625 34.8125 54.890625 23.390625 
Q 54.890625 11.625 47.5625 5.09375 
Q 40.234375 -1.421875 26.90625 -1.421875 
Q 22.3125 -1.421875 17.546875 -0.640625 
Q 12.796875 0.140625 7.71875 1.703125 
L 7.71875 11.625 
Q 12.109375 9.234375 16.796875 8.0625 
Q 21.484375 6.890625 26.703125 6.890625 
Q 35.15625 6.890625 40.078125 11.328125 
Q 45.015625 15.765625 45.015625 23.390625 
Q 45.015625 31 40.078125 35.4375 
Q 35.15625 39.890625 26.703125 39.890625 
Q 22.75 39.890625 18.8125 39.015625 
Q 14.890625 38.140625 10.796875 36.28125 
z
" id="DejaVuSans-53"/>
   </defs>
   <g style="fill:#262626;" transform="translate(72 86.4)scale(0.12 -0.12)">
    <use transform="translate(0 0.78125)" xlink:href="#DejaVuSans-Oblique-110"/>
    <use transform="translate(82.861328 0.78125)" xlink:href="#DejaVuSans-61"/>
    <use transform="translate(186.132812 0.78125)" xlink:href="#DejaVuSans-56"/>
    <use transform="translate(249.755859 0.78125)" xlink:href="#DejaVuSans-53"/>
   </g>
  </g>
 </g>
 <defs>
  <clipPath id="pefb1a70130">
   <rect height="192.974286" width="188.417143" x="49.8" y="50.725714"/>
  </clipPath>
  <clipPath id="p3dec484332">
   <rect height="33.271429" width="188.417143" x="49.8" y="10.8"/>
  </clipPath>
  <clipPath id="pf9b7e7c6cb">
   <rect height="192.974286" width="32.485714" x="244.714286" y="50.725714"/>
  </clipPath>
 </defs>
</svg>
