<?xml version="1.0" encoding="utf-8" standalone="no"?>
<!DOCTYPE svg PUBLIC "-//W3C//DTD SVG 1.1//EN"
  "http://www.w3.org/Graphics/SVG/1.1/DTD/svg11.dtd">
<!-- Created with matplotlib (https://matplotlib.org/) -->
<svg height="288pt" version="1.1" viewBox="0 0 288 288" width="288pt" xmlns="http://www.w3.org/2000/svg" xmlns:xlink="http://www.w3.org/1999/xlink">
 <defs>
  <style type="text/css">
*{stroke-linecap:butt;stroke-linejoin:round;}
  </style>
 </defs>
 <g id="figure_1">
  <g id="patch_1">
   <path d="M 0 288 
L 288 288 
L 288 0 
L 0 0 
z
" style="fill:#ffffff;"/>
  </g>
  <g id="axes_1">
   <g id="patch_2">
    <path d="M 49.8 243.7 
L 238.217143 243.7 
L 238.217143 50.725714 
L 49.8 50.725714 
z
" style="fill:#ffffff;"/>
   </g>
   <g id="matplotlib.axis_1">
    <g id="xtick_1">
     <g id="text_1">
      <!-- 0 -->
      <defs>
       <path d="M 4.15625 35.296875 
Q 4.15625 48 6.765625 55.734375 
Q 9.375 63.484375 14.515625 67.671875 
Q 19.671875 71.875 27.484375 71.875 
Q 33.25 71.875 37.59375 69.546875 
Q 41.9375 67.234375 44.765625 62.859375 
Q 47.609375 58.5 49.21875 52.21875 
Q 50.828125 45.953125 50.828125 35.296875 
Q 50.828125 22.703125 48.234375 14.96875 
Q 45.65625 7.234375 40.5 3 
Q 35.359375 -1.21875 27.484375 -1.21875 
Q 17.140625 -1.21875 11.234375 6.203125 
Q 4.15625 15.140625 4.15625 35.296875 
z
M 13.1875 35.296875 
Q 13.1875 17.671875 17.3125 11.828125 
Q 21.4375 6 27.484375 6 
Q 33.546875 6 37.671875 11.859375 
Q 41.796875 17.71875 41.796875 35.296875 
Q 41.796875 52.984375 37.671875 58.78125 
Q 33.546875 64.59375 27.390625 64.59375 
Q 21.34375 64.59375 17.71875 59.46875 
Q 13.1875 52.9375 13.1875 35.296875 
z
" id="ArialMT-48"/>
      </defs>
      <g style="fill:#262626;" transform="translate(85.524682 261.073594)scale(0.11 -0.11)">
       <use xlink:href="#ArialMT-48"/>
      </g>
     </g>
    </g>
    <g id="xtick_2">
     <g id="text_2">
      <!-- 500 -->
      <defs>
       <path d="M 4.15625 18.75 
L 13.375 19.53125 
Q 14.40625 12.796875 18.140625 9.390625 
Q 21.875 6 27.15625 6 
Q 33.5 6 37.890625 10.78125 
Q 42.28125 15.578125 42.28125 23.484375 
Q 42.28125 31 38.0625 35.34375 
Q 33.84375 39.703125 27 39.703125 
Q 22.75 39.703125 19.328125 37.765625 
Q 15.921875 35.84375 13.96875 32.765625 
L 5.71875 33.84375 
L 12.640625 70.609375 
L 48.25 70.609375 
L 48.25 62.203125 
L 19.671875 62.203125 
L 15.828125 42.96875 
Q 22.265625 47.46875 29.34375 47.46875 
Q 38.71875 47.46875 45.15625 40.96875 
Q 51.609375 34.46875 51.609375 24.265625 
Q 51.609375 14.546875 45.953125 7.46875 
Q 39.0625 -1.21875 27.15625 -1.21875 
Q 17.390625 -1.21875 11.203125 4.25 
Q 5.03125 9.71875 4.15625 18.75 
z
" id="ArialMT-53"/>
      </defs>
      <g style="fill:#262626;" transform="translate(140.985596 261.073594)scale(0.11 -0.11)">
       <use xlink:href="#ArialMT-53"/>
       <use x="55.615234" xlink:href="#ArialMT-48"/>
       <use x="111.230469" xlink:href="#ArialMT-48"/>
      </g>
     </g>
    </g>
    <g id="xtick_3">
     <g id="text_3">
      <!-- 1000 -->
      <defs>
       <path d="M 37.25 0 
L 28.46875 0 
L 28.46875 56 
Q 25.296875 52.984375 20.140625 49.953125 
Q 14.984375 46.921875 10.890625 45.40625 
L 10.890625 53.90625 
Q 18.265625 57.375 23.78125 62.296875 
Q 29.296875 67.234375 31.59375 71.875 
L 37.25 71.875 
z
" id="ArialMT-49"/>
      </defs>
      <g style="fill:#262626;" transform="translate(199.505025 261.073594)scale(0.11 -0.11)">
       <use xlink:href="#ArialMT-49"/>
       <use x="55.615234" xlink:href="#ArialMT-48"/>
       <use x="111.230469" xlink:href="#ArialMT-48"/>
       <use x="166.845703" xlink:href="#ArialMT-48"/>
      </g>
     </g>
    </g>
    <g id="text_4">
     <!-- Molecular weight -->
     <defs>
      <path d="M 7.421875 0 
L 7.421875 71.578125 
L 21.6875 71.578125 
L 38.625 20.90625 
Q 40.96875 13.8125 42.046875 10.296875 
Q 43.265625 14.203125 45.84375 21.78125 
L 62.984375 71.578125 
L 75.734375 71.578125 
L 75.734375 0 
L 66.609375 0 
L 66.609375 59.90625 
L 45.796875 0 
L 37.25 0 
L 16.546875 60.9375 
L 16.546875 0 
z
" id="ArialMT-77"/>
      <path d="M 3.328125 25.921875 
Q 3.328125 40.328125 11.328125 47.265625 
Q 18.015625 53.03125 27.640625 53.03125 
Q 38.328125 53.03125 45.109375 46.015625 
Q 51.90625 39.015625 51.90625 26.65625 
Q 51.90625 16.65625 48.90625 10.90625 
Q 45.90625 5.171875 40.15625 2 
Q 34.421875 -1.171875 27.640625 -1.171875 
Q 16.75 -1.171875 10.03125 5.8125 
Q 3.328125 12.796875 3.328125 25.921875 
z
M 12.359375 25.921875 
Q 12.359375 15.96875 16.703125 11.015625 
Q 21.046875 6.0625 27.640625 6.0625 
Q 34.1875 6.0625 38.53125 11.03125 
Q 42.875 16.015625 42.875 26.21875 
Q 42.875 35.84375 38.5 40.796875 
Q 34.125 45.75 27.640625 45.75 
Q 21.046875 45.75 16.703125 40.8125 
Q 12.359375 35.890625 12.359375 25.921875 
z
" id="ArialMT-111"/>
      <path d="M 6.390625 0 
L 6.390625 71.578125 
L 15.1875 71.578125 
L 15.1875 0 
z
" id="ArialMT-108"/>
      <path d="M 42.09375 16.703125 
L 51.171875 15.578125 
Q 49.03125 7.625 43.21875 3.21875 
Q 37.40625 -1.171875 28.375 -1.171875 
Q 17 -1.171875 10.328125 5.828125 
Q 3.65625 12.84375 3.65625 25.484375 
Q 3.65625 38.578125 10.390625 45.796875 
Q 17.140625 53.03125 27.875 53.03125 
Q 38.28125 53.03125 44.875 45.953125 
Q 51.46875 38.875 51.46875 26.03125 
Q 51.46875 25.25 51.421875 23.6875 
L 12.75 23.6875 
Q 13.234375 15.140625 17.578125 10.59375 
Q 21.921875 6.0625 28.421875 6.0625 
Q 33.25 6.0625 36.671875 8.59375 
Q 40.09375 11.140625 42.09375 16.703125 
z
M 13.234375 30.90625 
L 42.1875 30.90625 
Q 41.609375 37.453125 38.875 40.71875 
Q 34.671875 45.796875 27.984375 45.796875 
Q 21.921875 45.796875 17.796875 41.75 
Q 13.671875 37.703125 13.234375 30.90625 
z
" id="ArialMT-101"/>
      <path d="M 40.4375 19 
L 49.078125 17.875 
Q 47.65625 8.9375 41.8125 3.875 
Q 35.984375 -1.171875 27.484375 -1.171875 
Q 16.84375 -1.171875 10.375 5.78125 
Q 3.90625 12.75 3.90625 25.734375 
Q 3.90625 34.125 6.6875 40.421875 
Q 9.46875 46.734375 15.15625 49.875 
Q 20.84375 53.03125 27.546875 53.03125 
Q 35.984375 53.03125 41.359375 48.75 
Q 46.734375 44.484375 48.25 36.625 
L 39.703125 35.296875 
Q 38.484375 40.53125 35.375 43.15625 
Q 32.28125 45.796875 27.875 45.796875 
Q 21.234375 45.796875 17.078125 41.03125 
Q 12.9375 36.28125 12.9375 25.984375 
Q 12.9375 15.53125 16.9375 10.796875 
Q 20.953125 6.0625 27.390625 6.0625 
Q 32.5625 6.0625 36.03125 9.234375 
Q 39.5 12.40625 40.4375 19 
z
" id="ArialMT-99"/>
      <path d="M 40.578125 0 
L 40.578125 7.625 
Q 34.515625 -1.171875 24.125 -1.171875 
Q 19.53125 -1.171875 15.546875 0.578125 
Q 11.578125 2.34375 9.640625 5 
Q 7.71875 7.671875 6.9375 11.53125 
Q 6.390625 14.109375 6.390625 19.734375 
L 6.390625 51.859375 
L 15.1875 51.859375 
L 15.1875 23.09375 
Q 15.1875 16.21875 15.71875 13.8125 
Q 16.546875 10.359375 19.234375 8.375 
Q 21.921875 6.390625 25.875 6.390625 
Q 29.828125 6.390625 33.296875 8.421875 
Q 36.765625 10.453125 38.203125 13.9375 
Q 39.65625 17.4375 39.65625 24.078125 
L 39.65625 51.859375 
L 48.4375 51.859375 
L 48.4375 0 
z
" id="ArialMT-117"/>
      <path d="M 40.4375 6.390625 
Q 35.546875 2.25 31.03125 0.53125 
Q 26.515625 -1.171875 21.34375 -1.171875 
Q 12.796875 -1.171875 8.203125 3 
Q 3.609375 7.171875 3.609375 13.671875 
Q 3.609375 17.484375 5.34375 20.625 
Q 7.078125 23.78125 9.890625 25.6875 
Q 12.703125 27.59375 16.21875 28.5625 
Q 18.796875 29.25 24.03125 29.890625 
Q 34.671875 31.15625 39.703125 32.90625 
Q 39.75 34.71875 39.75 35.203125 
Q 39.75 40.578125 37.25 42.78125 
Q 33.890625 45.75 27.25 45.75 
Q 21.046875 45.75 18.09375 43.578125 
Q 15.140625 41.40625 13.71875 35.890625 
L 5.125 37.0625 
Q 6.296875 42.578125 8.984375 45.96875 
Q 11.671875 49.359375 16.75 51.1875 
Q 21.828125 53.03125 28.515625 53.03125 
Q 35.15625 53.03125 39.296875 51.46875 
Q 43.453125 49.90625 45.40625 47.53125 
Q 47.359375 45.171875 48.140625 41.546875 
Q 48.578125 39.3125 48.578125 33.453125 
L 48.578125 21.734375 
Q 48.578125 9.46875 49.140625 6.21875 
Q 49.703125 2.984375 51.375 0 
L 42.1875 0 
Q 40.828125 2.734375 40.4375 6.390625 
z
M 39.703125 26.03125 
Q 34.90625 24.078125 25.34375 22.703125 
Q 19.921875 21.921875 17.671875 20.9375 
Q 15.4375 19.96875 14.203125 18.09375 
Q 12.984375 16.21875 12.984375 13.921875 
Q 12.984375 10.40625 15.640625 8.0625 
Q 18.3125 5.71875 23.4375 5.71875 
Q 28.515625 5.71875 32.46875 7.9375 
Q 36.421875 10.15625 38.28125 14.015625 
Q 39.703125 17 39.703125 22.796875 
z
" id="ArialMT-97"/>
      <path d="M 6.5 0 
L 6.5 51.859375 
L 14.40625 51.859375 
L 14.40625 44 
Q 17.4375 49.515625 20 51.265625 
Q 22.5625 53.03125 25.640625 53.03125 
Q 30.078125 53.03125 34.671875 50.203125 
L 31.640625 42.046875 
Q 28.421875 43.953125 25.203125 43.953125 
Q 22.3125 43.953125 20.015625 42.21875 
Q 17.71875 40.484375 16.75 37.40625 
Q 15.28125 32.71875 15.28125 27.15625 
L 15.28125 0 
z
" id="ArialMT-114"/>
      <path id="ArialMT-32"/>
      <path d="M 16.15625 0 
L 0.296875 51.859375 
L 9.375 51.859375 
L 17.625 21.921875 
L 20.703125 10.796875 
Q 20.90625 11.625 23.390625 21.484375 
L 31.640625 51.859375 
L 40.671875 51.859375 
L 48.4375 21.78125 
L 51.03125 11.859375 
L 54 21.875 
L 62.890625 51.859375 
L 71.4375 51.859375 
L 55.21875 0 
L 46.09375 0 
L 37.84375 31.0625 
L 35.84375 39.890625 
L 25.34375 0 
z
" id="ArialMT-119"/>
      <path d="M 6.640625 61.46875 
L 6.640625 71.578125 
L 15.4375 71.578125 
L 15.4375 61.46875 
z
M 6.640625 0 
L 6.640625 51.859375 
L 15.4375 51.859375 
L 15.4375 0 
z
" id="ArialMT-105"/>
      <path d="M 4.984375 -4.296875 
L 13.53125 -5.5625 
Q 14.0625 -9.515625 16.5 -11.328125 
Q 19.78125 -13.765625 25.4375 -13.765625 
Q 31.546875 -13.765625 34.859375 -11.328125 
Q 38.1875 -8.890625 39.359375 -4.5 
Q 40.046875 -1.8125 39.984375 6.78125 
Q 34.234375 0 25.640625 0 
Q 14.9375 0 9.078125 7.71875 
Q 3.21875 15.4375 3.21875 26.21875 
Q 3.21875 33.640625 5.90625 39.90625 
Q 8.59375 46.1875 13.6875 49.609375 
Q 18.796875 53.03125 25.6875 53.03125 
Q 34.859375 53.03125 40.828125 45.609375 
L 40.828125 51.859375 
L 48.921875 51.859375 
L 48.921875 7.03125 
Q 48.921875 -5.078125 46.453125 -10.125 
Q 44 -15.1875 38.640625 -18.109375 
Q 33.296875 -21.046875 25.484375 -21.046875 
Q 16.21875 -21.046875 10.5 -16.875 
Q 4.78125 -12.703125 4.984375 -4.296875 
z
M 12.25 26.859375 
Q 12.25 16.65625 16.296875 11.96875 
Q 20.359375 7.28125 26.46875 7.28125 
Q 32.515625 7.28125 36.609375 11.9375 
Q 40.71875 16.609375 40.71875 26.5625 
Q 40.71875 36.078125 36.5 40.90625 
Q 32.28125 45.75 26.3125 45.75 
Q 20.453125 45.75 16.34375 40.984375 
Q 12.25 36.234375 12.25 26.859375 
z
" id="ArialMT-103"/>
      <path d="M 6.59375 0 
L 6.59375 71.578125 
L 15.375 71.578125 
L 15.375 45.90625 
Q 21.53125 53.03125 30.90625 53.03125 
Q 36.671875 53.03125 40.921875 50.75 
Q 45.171875 48.484375 47 44.484375 
Q 48.828125 40.484375 48.828125 32.859375 
L 48.828125 0 
L 40.046875 0 
L 40.046875 32.859375 
Q 40.046875 39.453125 37.1875 42.453125 
Q 34.328125 45.453125 29.109375 45.453125 
Q 25.203125 45.453125 21.75 43.421875 
Q 18.3125 41.40625 16.84375 37.9375 
Q 15.375 34.46875 15.375 28.375 
L 15.375 0 
z
" id="ArialMT-104"/>
      <path d="M 25.78125 7.859375 
L 27.046875 0.09375 
Q 23.34375 -0.6875 20.40625 -0.6875 
Q 15.625 -0.6875 12.984375 0.828125 
Q 10.359375 2.34375 9.28125 4.8125 
Q 8.203125 7.28125 8.203125 15.1875 
L 8.203125 45.015625 
L 1.765625 45.015625 
L 1.765625 51.859375 
L 8.203125 51.859375 
L 8.203125 64.703125 
L 16.9375 69.96875 
L 16.9375 51.859375 
L 25.78125 51.859375 
L 25.78125 45.015625 
L 16.9375 45.015625 
L 16.9375 14.703125 
Q 16.9375 10.9375 17.40625 9.859375 
Q 17.875 8.796875 18.921875 8.15625 
Q 19.96875 7.515625 21.921875 7.515625 
Q 23.390625 7.515625 25.78125 7.859375 
z
" id="ArialMT-116"/>
     </defs>
     <g style="fill:#262626;" transform="translate(98.990759 275.849219)scale(0.12 -0.12)">
      <use xlink:href="#ArialMT-77"/>
      <use x="83.300781" xlink:href="#ArialMT-111"/>
      <use x="138.916016" xlink:href="#ArialMT-108"/>
      <use x="161.132812" xlink:href="#ArialMT-101"/>
      <use x="216.748047" xlink:href="#ArialMT-99"/>
      <use x="266.748047" xlink:href="#ArialMT-117"/>
      <use x="322.363281" xlink:href="#ArialMT-108"/>
      <use x="344.580078" xlink:href="#ArialMT-97"/>
      <use x="400.195312" xlink:href="#ArialMT-114"/>
      <use x="433.496094" xlink:href="#ArialMT-32"/>
      <use x="461.279297" xlink:href="#ArialMT-119"/>
      <use x="533.496094" xlink:href="#ArialMT-101"/>
      <use x="589.111328" xlink:href="#ArialMT-105"/>
      <use x="611.328125" xlink:href="#ArialMT-103"/>
      <use x="666.943359" xlink:href="#ArialMT-104"/>
      <use x="722.558594" xlink:href="#ArialMT-116"/>
     </g>
    </g>
   </g>
   <g id="matplotlib.axis_2">
    <g id="ytick_1">
     <g id="text_5">
      <!-- 0.4 -->
      <defs>
       <path d="M 9.078125 0 
L 9.078125 10.015625 
L 19.09375 10.015625 
L 19.09375 0 
z
" id="ArialMT-46"/>
       <path d="M 32.328125 0 
L 32.328125 17.140625 
L 1.265625 17.140625 
L 1.265625 25.203125 
L 33.9375 71.578125 
L 41.109375 71.578125 
L 41.109375 25.203125 
L 50.78125 25.203125 
L 50.78125 17.140625 
L 41.109375 17.140625 
L 41.109375 0 
z
M 32.328125 25.203125 
L 32.328125 57.46875 
L 9.90625 25.203125 
z
" id="ArialMT-52"/>
      </defs>
      <g style="fill:#262626;" transform="translate(25.01 241.461912)scale(0.11 -0.11)">
       <use xlink:href="#ArialMT-48"/>
       <use x="55.615234" xlink:href="#ArialMT-46"/>
       <use x="83.398438" xlink:href="#ArialMT-52"/>
      </g>
     </g>
    </g>
    <g id="ytick_2">
     <g id="text_6">
      <!-- 0.5 -->
      <g style="fill:#262626;" transform="translate(25.01 215.815694)scale(0.11 -0.11)">
       <use xlink:href="#ArialMT-48"/>
       <use x="55.615234" xlink:href="#ArialMT-46"/>
       <use x="83.398438" xlink:href="#ArialMT-53"/>
      </g>
     </g>
    </g>
    <g id="ytick_3">
     <g id="text_7">
      <!-- 0.6 -->
      <defs>
       <path d="M 49.75 54.046875 
L 41.015625 53.375 
Q 39.84375 58.546875 37.703125 60.890625 
Q 34.125 64.65625 28.90625 64.65625 
Q 24.703125 64.65625 21.53125 62.3125 
Q 17.390625 59.28125 14.984375 53.46875 
Q 12.59375 47.65625 12.5 36.921875 
Q 15.671875 41.75 20.265625 44.09375 
Q 24.859375 46.4375 29.890625 46.4375 
Q 38.671875 46.4375 44.84375 39.96875 
Q 51.03125 33.5 51.03125 23.25 
Q 51.03125 16.5 48.125 10.71875 
Q 45.21875 4.9375 40.140625 1.859375 
Q 35.0625 -1.21875 28.609375 -1.21875 
Q 17.625 -1.21875 10.6875 6.859375 
Q 3.765625 14.9375 3.765625 33.5 
Q 3.765625 54.25 11.421875 63.671875 
Q 18.109375 71.875 29.4375 71.875 
Q 37.890625 71.875 43.28125 67.140625 
Q 48.6875 62.40625 49.75 54.046875 
z
M 13.875 23.1875 
Q 13.875 18.65625 15.796875 14.5 
Q 17.71875 10.359375 21.1875 8.171875 
Q 24.65625 6 28.46875 6 
Q 34.03125 6 38.03125 10.484375 
Q 42.046875 14.984375 42.046875 22.703125 
Q 42.046875 30.125 38.078125 34.390625 
Q 34.125 38.671875 28.125 38.671875 
Q 22.171875 38.671875 18.015625 34.390625 
Q 13.875 30.125 13.875 23.1875 
z
" id="ArialMT-54"/>
      </defs>
      <g style="fill:#262626;" transform="translate(25.01 190.169476)scale(0.11 -0.11)">
       <use xlink:href="#ArialMT-48"/>
       <use x="55.615234" xlink:href="#ArialMT-46"/>
       <use x="83.398438" xlink:href="#ArialMT-54"/>
      </g>
     </g>
    </g>
    <g id="ytick_4">
     <g id="text_8">
      <!-- 0.7 -->
      <defs>
       <path d="M 4.734375 62.203125 
L 4.734375 70.65625 
L 51.078125 70.65625 
L 51.078125 63.8125 
Q 44.234375 56.546875 37.515625 44.484375 
Q 30.8125 32.421875 27.15625 19.671875 
Q 24.515625 10.6875 23.78125 0 
L 14.75 0 
Q 14.890625 8.453125 18.0625 20.40625 
Q 21.234375 32.375 27.171875 43.484375 
Q 33.109375 54.59375 39.796875 62.203125 
z
" id="ArialMT-55"/>
      </defs>
      <g style="fill:#262626;" transform="translate(25.01 164.523259)scale(0.11 -0.11)">
       <use xlink:href="#ArialMT-48"/>
       <use x="55.615234" xlink:href="#ArialMT-46"/>
       <use x="83.398438" xlink:href="#ArialMT-55"/>
      </g>
     </g>
    </g>
    <g id="ytick_5">
     <g id="text_9">
      <!-- 0.8 -->
      <defs>
       <path d="M 17.671875 38.8125 
Q 12.203125 40.828125 9.5625 44.53125 
Q 6.9375 48.25 6.9375 53.421875 
Q 6.9375 61.234375 12.546875 66.546875 
Q 18.171875 71.875 27.484375 71.875 
Q 36.859375 71.875 42.578125 66.421875 
Q 48.296875 60.984375 48.296875 53.171875 
Q 48.296875 48.1875 45.671875 44.5 
Q 43.0625 40.828125 37.75 38.8125 
Q 44.34375 36.671875 47.78125 31.875 
Q 51.21875 27.09375 51.21875 20.453125 
Q 51.21875 11.28125 44.71875 5.03125 
Q 38.234375 -1.21875 27.640625 -1.21875 
Q 17.046875 -1.21875 10.546875 5.046875 
Q 4.046875 11.328125 4.046875 20.703125 
Q 4.046875 27.6875 7.59375 32.390625 
Q 11.140625 37.109375 17.671875 38.8125 
z
M 15.921875 53.71875 
Q 15.921875 48.640625 19.1875 45.40625 
Q 22.46875 42.1875 27.6875 42.1875 
Q 32.765625 42.1875 36.015625 45.375 
Q 39.265625 48.578125 39.265625 53.21875 
Q 39.265625 58.0625 35.90625 61.359375 
Q 32.5625 64.65625 27.59375 64.65625 
Q 22.5625 64.65625 19.234375 61.421875 
Q 15.921875 58.203125 15.921875 53.71875 
z
M 13.09375 20.65625 
Q 13.09375 16.890625 14.875 13.375 
Q 16.65625 9.859375 20.171875 7.921875 
Q 23.6875 6 27.734375 6 
Q 34.03125 6 38.125 10.046875 
Q 42.234375 14.109375 42.234375 20.359375 
Q 42.234375 26.703125 38.015625 30.859375 
Q 33.796875 35.015625 27.4375 35.015625 
Q 21.234375 35.015625 17.15625 30.90625 
Q 13.09375 26.8125 13.09375 20.65625 
z
" id="ArialMT-56"/>
      </defs>
      <g style="fill:#262626;" transform="translate(25.01 138.877041)scale(0.11 -0.11)">
       <use xlink:href="#ArialMT-48"/>
       <use x="55.615234" xlink:href="#ArialMT-46"/>
       <use x="83.398438" xlink:href="#ArialMT-56"/>
      </g>
     </g>
    </g>
    <g id="ytick_6">
     <g id="text_10">
      <!-- 0.9 -->
      <defs>
       <path d="M 5.46875 16.546875 
L 13.921875 17.328125 
Q 14.984375 11.375 18.015625 8.6875 
Q 21.046875 6 25.78125 6 
Q 29.828125 6 32.875 7.859375 
Q 35.9375 9.71875 37.890625 12.8125 
Q 39.84375 15.921875 41.15625 21.1875 
Q 42.484375 26.46875 42.484375 31.9375 
Q 42.484375 32.515625 42.4375 33.6875 
Q 39.796875 29.5 35.234375 26.875 
Q 30.671875 24.265625 25.34375 24.265625 
Q 16.453125 24.265625 10.296875 30.703125 
Q 4.15625 37.15625 4.15625 47.703125 
Q 4.15625 58.59375 10.578125 65.234375 
Q 17 71.875 26.65625 71.875 
Q 33.640625 71.875 39.421875 68.109375 
Q 45.21875 64.359375 48.21875 57.390625 
Q 51.21875 50.4375 51.21875 37.25 
Q 51.21875 23.53125 48.234375 15.40625 
Q 45.265625 7.28125 39.375 3.03125 
Q 33.5 -1.21875 25.59375 -1.21875 
Q 17.1875 -1.21875 11.859375 3.4375 
Q 6.546875 8.109375 5.46875 16.546875 
z
M 41.453125 48.140625 
Q 41.453125 55.71875 37.421875 60.15625 
Q 33.40625 64.59375 27.734375 64.59375 
Q 21.875 64.59375 17.53125 59.8125 
Q 13.1875 55.03125 13.1875 47.40625 
Q 13.1875 40.578125 17.3125 36.296875 
Q 21.4375 32.03125 27.484375 32.03125 
Q 33.59375 32.03125 37.515625 36.296875 
Q 41.453125 40.578125 41.453125 48.140625 
z
" id="ArialMT-57"/>
      </defs>
      <g style="fill:#262626;" transform="translate(25.01 113.230824)scale(0.11 -0.11)">
       <use xlink:href="#ArialMT-48"/>
       <use x="55.615234" xlink:href="#ArialMT-46"/>
       <use x="83.398438" xlink:href="#ArialMT-57"/>
      </g>
     </g>
    </g>
    <g id="ytick_7">
     <g id="text_11">
      <!-- 1.0 -->
      <g style="fill:#262626;" transform="translate(25.01 87.584606)scale(0.11 -0.11)">
       <use xlink:href="#ArialMT-49"/>
       <use x="55.615234" xlink:href="#ArialMT-46"/>
       <use x="83.398438" xlink:href="#ArialMT-48"/>
      </g>
     </g>
    </g>
    <g id="ytick_8">
     <g id="text_12">
      <!-- 1.1 -->
      <g style="fill:#262626;" transform="translate(25.01 61.938388)scale(0.11 -0.11)">
       <use xlink:href="#ArialMT-49"/>
       <use x="55.615234" xlink:href="#ArialMT-46"/>
       <use x="83.398438" xlink:href="#ArialMT-49"/>
      </g>
     </g>
    </g>
    <g id="text_13">
     <!-- Maximum design objective -->
     <defs>
      <path d="M 0.734375 0 
L 19.671875 26.953125 
L 2.15625 51.859375 
L 13.140625 51.859375 
L 21.09375 39.703125 
Q 23.34375 36.234375 24.703125 33.890625 
Q 26.859375 37.109375 28.65625 39.59375 
L 37.40625 51.859375 
L 47.90625 51.859375 
L 29.984375 27.4375 
L 49.265625 0 
L 38.484375 0 
L 27.828125 16.109375 
L 25 20.453125 
L 11.375 0 
z
" id="ArialMT-120"/>
      <path d="M 6.59375 0 
L 6.59375 51.859375 
L 14.453125 51.859375 
L 14.453125 44.578125 
Q 16.890625 48.390625 20.9375 50.703125 
Q 25 53.03125 30.171875 53.03125 
Q 35.9375 53.03125 39.625 50.640625 
Q 43.3125 48.25 44.828125 43.953125 
Q 50.984375 53.03125 60.84375 53.03125 
Q 68.5625 53.03125 72.703125 48.75 
Q 76.859375 44.484375 76.859375 35.59375 
L 76.859375 0 
L 68.109375 0 
L 68.109375 32.671875 
Q 68.109375 37.9375 67.25 40.25 
Q 66.40625 42.578125 64.15625 43.984375 
Q 61.921875 45.40625 58.890625 45.40625 
Q 53.421875 45.40625 49.796875 41.765625 
Q 46.1875 38.140625 46.1875 30.125 
L 46.1875 0 
L 37.40625 0 
L 37.40625 33.6875 
Q 37.40625 39.546875 35.25 42.46875 
Q 33.109375 45.40625 28.21875 45.40625 
Q 24.515625 45.40625 21.359375 43.453125 
Q 18.21875 41.5 16.796875 37.734375 
Q 15.375 33.984375 15.375 26.90625 
L 15.375 0 
z
" id="ArialMT-109"/>
      <path d="M 40.234375 0 
L 40.234375 6.546875 
Q 35.296875 -1.171875 25.734375 -1.171875 
Q 19.53125 -1.171875 14.328125 2.25 
Q 9.125 5.671875 6.265625 11.796875 
Q 3.421875 17.921875 3.421875 25.875 
Q 3.421875 33.640625 6 39.96875 
Q 8.59375 46.296875 13.765625 49.65625 
Q 18.953125 53.03125 25.34375 53.03125 
Q 30.03125 53.03125 33.6875 51.046875 
Q 37.359375 49.078125 39.65625 45.90625 
L 39.65625 71.578125 
L 48.390625 71.578125 
L 48.390625 0 
z
M 12.453125 25.875 
Q 12.453125 15.921875 16.640625 10.984375 
Q 20.84375 6.0625 26.5625 6.0625 
Q 32.328125 6.0625 36.34375 10.765625 
Q 40.375 15.484375 40.375 25.140625 
Q 40.375 35.796875 36.265625 40.765625 
Q 32.171875 45.75 26.171875 45.75 
Q 20.3125 45.75 16.375 40.96875 
Q 12.453125 36.1875 12.453125 25.875 
z
" id="ArialMT-100"/>
      <path d="M 3.078125 15.484375 
L 11.765625 16.84375 
Q 12.5 11.625 15.84375 8.84375 
Q 19.1875 6.0625 25.203125 6.0625 
Q 31.25 6.0625 34.171875 8.515625 
Q 37.109375 10.984375 37.109375 14.3125 
Q 37.109375 17.28125 34.515625 19 
Q 32.71875 20.171875 25.53125 21.96875 
Q 15.875 24.421875 12.140625 26.203125 
Q 8.40625 27.984375 6.46875 31.125 
Q 4.546875 34.28125 4.546875 38.09375 
Q 4.546875 41.546875 6.125 44.5 
Q 7.71875 47.46875 10.453125 49.421875 
Q 12.5 50.921875 16.03125 51.96875 
Q 19.578125 53.03125 23.640625 53.03125 
Q 29.734375 53.03125 34.34375 51.265625 
Q 38.96875 49.515625 41.15625 46.5 
Q 43.359375 43.5 44.1875 38.484375 
L 35.59375 37.3125 
Q 35.015625 41.3125 32.203125 43.546875 
Q 29.390625 45.796875 24.265625 45.796875 
Q 18.21875 45.796875 15.625 43.796875 
Q 13.03125 41.796875 13.03125 39.109375 
Q 13.03125 37.40625 14.109375 36.03125 
Q 15.1875 34.625 17.484375 33.6875 
Q 18.796875 33.203125 25.25 31.453125 
Q 34.578125 28.953125 38.25 27.359375 
Q 41.9375 25.78125 44.03125 22.75 
Q 46.140625 19.734375 46.140625 15.234375 
Q 46.140625 10.84375 43.578125 6.953125 
Q 41.015625 3.078125 36.171875 0.953125 
Q 31.34375 -1.171875 25.25 -1.171875 
Q 15.140625 -1.171875 9.84375 3.03125 
Q 4.546875 7.234375 3.078125 15.484375 
z
" id="ArialMT-115"/>
      <path d="M 6.59375 0 
L 6.59375 51.859375 
L 14.5 51.859375 
L 14.5 44.484375 
Q 20.21875 53.03125 31 53.03125 
Q 35.6875 53.03125 39.625 51.34375 
Q 43.5625 49.65625 45.515625 46.921875 
Q 47.46875 44.1875 48.25 40.4375 
Q 48.734375 37.984375 48.734375 31.890625 
L 48.734375 0 
L 39.9375 0 
L 39.9375 31.546875 
Q 39.9375 36.921875 38.90625 39.578125 
Q 37.890625 42.234375 35.28125 43.8125 
Q 32.671875 45.40625 29.15625 45.40625 
Q 23.53125 45.40625 19.453125 41.84375 
Q 15.375 38.28125 15.375 28.328125 
L 15.375 0 
z
" id="ArialMT-110"/>
      <path d="M 14.703125 0 
L 6.546875 0 
L 6.546875 71.578125 
L 15.328125 71.578125 
L 15.328125 46.046875 
Q 20.90625 53.03125 29.546875 53.03125 
Q 34.328125 53.03125 38.59375 51.09375 
Q 42.875 49.171875 45.625 45.671875 
Q 48.390625 42.1875 49.953125 37.25 
Q 51.515625 32.328125 51.515625 26.703125 
Q 51.515625 13.375 44.921875 6.09375 
Q 38.328125 -1.171875 29.109375 -1.171875 
Q 19.921875 -1.171875 14.703125 6.5 
z
M 14.59375 26.3125 
Q 14.59375 17 17.140625 12.84375 
Q 21.296875 6.0625 28.375 6.0625 
Q 34.125 6.0625 38.328125 11.0625 
Q 42.53125 16.0625 42.53125 25.984375 
Q 42.53125 36.140625 38.5 40.96875 
Q 34.46875 45.796875 28.765625 45.796875 
Q 23 45.796875 18.796875 40.796875 
Q 14.59375 35.796875 14.59375 26.3125 
z
" id="ArialMT-98"/>
      <path d="M 6.546875 61.375 
L 6.546875 71.578125 
L 15.328125 71.578125 
L 15.328125 61.375 
z
M -4.59375 -20.125 
L -2.9375 -12.640625 
Q -0.296875 -13.328125 1.21875 -13.328125 
Q 3.90625 -13.328125 5.21875 -11.546875 
Q 6.546875 -9.765625 6.546875 -2.640625 
L 6.546875 51.859375 
L 15.328125 51.859375 
L 15.328125 -2.828125 
Q 15.328125 -12.40625 12.84375 -16.15625 
Q 9.671875 -21.046875 2.296875 -21.046875 
Q -1.265625 -21.046875 -4.59375 -20.125 
z
" id="ArialMT-106"/>
      <path d="M 21 0 
L 1.265625 51.859375 
L 10.546875 51.859375 
L 21.6875 20.796875 
Q 23.484375 15.765625 25 10.359375 
Q 26.171875 14.453125 28.265625 20.21875 
L 39.796875 51.859375 
L 48.828125 51.859375 
L 29.203125 0 
z
" id="ArialMT-118"/>
     </defs>
     <g style="fill:#262626;" transform="translate(18.484375 217.905045)rotate(-90)scale(0.12 -0.12)">
      <use xlink:href="#ArialMT-77"/>
      <use x="83.300781" xlink:href="#ArialMT-97"/>
      <use x="138.916016" xlink:href="#ArialMT-120"/>
      <use x="188.916016" xlink:href="#ArialMT-105"/>
      <use x="211.132812" xlink:href="#ArialMT-109"/>
      <use x="294.433594" xlink:href="#ArialMT-117"/>
      <use x="350.048828" xlink:href="#ArialMT-109"/>
      <use x="433.349609" xlink:href="#ArialMT-32"/>
      <use x="461.132812" xlink:href="#ArialMT-100"/>
      <use x="516.748047" xlink:href="#ArialMT-101"/>
      <use x="572.363281" xlink:href="#ArialMT-115"/>
      <use x="622.363281" xlink:href="#ArialMT-105"/>
      <use x="644.580078" xlink:href="#ArialMT-103"/>
      <use x="700.195312" xlink:href="#ArialMT-110"/>
      <use x="755.810547" xlink:href="#ArialMT-32"/>
      <use x="783.59375" xlink:href="#ArialMT-111"/>
      <use x="839.208984" xlink:href="#ArialMT-98"/>
      <use x="894.824219" xlink:href="#ArialMT-106"/>
      <use x="917.041016" xlink:href="#ArialMT-101"/>
      <use x="972.65625" xlink:href="#ArialMT-99"/>
      <use x="1022.65625" xlink:href="#ArialMT-116"/>
      <use x="1050.439453" xlink:href="#ArialMT-105"/>
      <use x="1072.65625" xlink:href="#ArialMT-118"/>
      <use x="1122.65625" xlink:href="#ArialMT-101"/>
     </g>
    </g>
   </g>
   <g id="PathCollection_1">
    <defs>
     <path d="M 0 3 
C 0.795609 3 1.55874 2.683901 2.12132 2.12132 
C 2.683901 1.55874 3 0.795609 3 0 
C 3 -0.795609 2.683901 -1.55874 2.12132 -2.12132 
C 1.55874 -2.683901 0.795609 -3 0 -3 
C -0.795609 -3 -1.55874 -2.683901 -2.12132 -2.12132 
C -2.683901 -1.55874 -3 -0.795609 -3 0 
C -3 0.795609 -2.683901 1.55874 -2.12132 2.12132 
C -1.55874 2.683901 -0.795609 3 0 3 
z
" id="m808d666d46" style="stroke:#a1c9f4;stroke-opacity:0.8;"/>
    </defs>
    <g clip-path="url(#p42084c4530)">
     <use style="fill:#a1c9f4;fill-opacity:0.8;stroke:#a1c9f4;stroke-opacity:0.8;" x="144.828342" xlink:href="#m808d666d46" y="182.238025"/>
     <use style="fill:#a1c9f4;fill-opacity:0.8;stroke:#a1c9f4;stroke-opacity:0.8;" x="151.738166" xlink:href="#m808d666d46" y="100.23963"/>
     <use style="fill:#a1c9f4;fill-opacity:0.8;stroke:#a1c9f4;stroke-opacity:0.8;" x="151.241631" xlink:href="#m808d666d46" y="118.090936"/>
     <use style="fill:#a1c9f4;fill-opacity:0.8;stroke:#a1c9f4;stroke-opacity:0.8;" x="158.64799" xlink:href="#m808d666d46" y="103.340257"/>
     <use style="fill:#a1c9f4;fill-opacity:0.8;stroke:#a1c9f4;stroke-opacity:0.8;" x="158.151455" xlink:href="#m808d666d46" y="102.720388"/>
     <use style="fill:#a1c9f4;fill-opacity:0.8;stroke:#a1c9f4;stroke-opacity:0.8;" x="165.557814" xlink:href="#m808d666d46" y="104.219923"/>
     <use style="fill:#a1c9f4;fill-opacity:0.8;stroke:#a1c9f4;stroke-opacity:0.8;" x="165.061279" xlink:href="#m808d666d46" y="107.353121"/>
     <use style="fill:#a1c9f4;fill-opacity:0.8;stroke:#a1c9f4;stroke-opacity:0.8;" x="151.590525" xlink:href="#m808d666d46" y="108.604656"/>
     <use style="fill:#a1c9f4;fill-opacity:0.8;stroke:#a1c9f4;stroke-opacity:0.8;" x="131.978447" xlink:href="#m808d666d46" y="174.682393"/>
     <use style="fill:#a1c9f4;fill-opacity:0.8;stroke:#a1c9f4;stroke-opacity:0.8;" x="138.640003" xlink:href="#m808d666d46" y="175.596424"/>
     <use style="fill:#a1c9f4;fill-opacity:0.8;stroke:#a1c9f4;stroke-opacity:0.8;" x="138.88827" xlink:href="#m808d666d46" y="187.715544"/>
     <use style="fill:#a1c9f4;fill-opacity:0.8;stroke:#a1c9f4;stroke-opacity:0.8;" x="142.094915" xlink:href="#m808d666d46" y="124.825376"/>
     <use style="fill:#a1c9f4;fill-opacity:0.8;stroke:#a1c9f4;stroke-opacity:0.8;" x="142.343182" xlink:href="#m808d666d46" y="98.935776"/>
     <use style="fill:#a1c9f4;fill-opacity:0.8;stroke:#a1c9f4;stroke-opacity:0.8;" x="135.185091" xlink:href="#m808d666d46" y="158.524506"/>
     <use style="fill:#a1c9f4;fill-opacity:0.8;stroke:#a1c9f4;stroke-opacity:0.8;" x="135.433359" xlink:href="#m808d666d46" y="177.144173"/>
     <use style="fill:#a1c9f4;fill-opacity:0.8;stroke:#a1c9f4;stroke-opacity:0.8;" x="104.978025" xlink:href="#m808d666d46" y="195.924898"/>
     <use style="fill:#a1c9f4;fill-opacity:0.8;stroke:#a1c9f4;stroke-opacity:0.8;" x="151.590525" xlink:href="#m808d666d46" y="108.604656"/>
     <use style="fill:#a1c9f4;fill-opacity:0.8;stroke:#a1c9f4;stroke-opacity:0.8;" x="138.764137" xlink:href="#m808d666d46" y="106.504231"/>
     <use style="fill:#a1c9f4;fill-opacity:0.8;stroke:#a1c9f4;stroke-opacity:0.8;" x="139.012404" xlink:href="#m808d666d46" y="125.850455"/>
     <use style="fill:#a1c9f4;fill-opacity:0.8;stroke:#a1c9f4;stroke-opacity:0.8;" x="142.219049" xlink:href="#m808d666d46" y="128.144766"/>
     <use style="fill:#a1c9f4;fill-opacity:0.8;stroke:#a1c9f4;stroke-opacity:0.8;" x="142.467316" xlink:href="#m808d666d46" y="143.980536"/>
     <use style="fill:#a1c9f4;fill-opacity:0.8;stroke:#a1c9f4;stroke-opacity:0.8;" x="135.557492" xlink:href="#m808d666d46" y="111.536532"/>
     <use style="fill:#a1c9f4;fill-opacity:0.8;stroke:#a1c9f4;stroke-opacity:0.8;" x="102.759337" xlink:href="#m808d666d46" y="195.924898"/>
     <use style="fill:#a1c9f4;fill-opacity:0.8;stroke:#a1c9f4;stroke-opacity:0.8;" x="95.854817" xlink:href="#m808d666d46" y="139.49809"/>
     <use style="fill:#a1c9f4;fill-opacity:0.8;stroke:#a1c9f4;stroke-opacity:0.8;" x="94.00853" xlink:href="#m808d666d46" y="118.838523"/>
     <use style="fill:#a1c9f4;fill-opacity:0.8;stroke:#a1c9f4;stroke-opacity:0.8;" x="186.129037" xlink:href="#m808d666d46" y="117.10766"/>
     <use style="fill:#a1c9f4;fill-opacity:0.8;stroke:#a1c9f4;stroke-opacity:0.8;" x="109.674464" xlink:href="#m808d666d46" y="120.910481"/>
     <use style="fill:#a1c9f4;fill-opacity:0.8;stroke:#a1c9f4;stroke-opacity:0.8;" x="113.129376" xlink:href="#m808d666d46" y="119.262968"/>
     <use style="fill:#a1c9f4;fill-opacity:0.8;stroke:#a1c9f4;stroke-opacity:0.8;" x="122.979372" xlink:href="#m808d666d46" y="104.067584"/>
     <use style="fill:#a1c9f4;fill-opacity:0.8;stroke:#a1c9f4;stroke-opacity:0.8;" x="94.256798" xlink:href="#m808d666d46" y="116.379564"/>
     <use style="fill:#a1c9f4;fill-opacity:0.8;stroke:#a1c9f4;stroke-opacity:0.8;" x="94.127361" xlink:href="#m808d666d46" y="170.145833"/>
     <use style="fill:#a1c9f4;fill-opacity:0.8;stroke:#a1c9f4;stroke-opacity:0.8;" x="120.0392" xlink:href="#m808d666d46" y="117.151002"/>
     <use style="fill:#a1c9f4;fill-opacity:0.8;stroke:#a1c9f4;stroke-opacity:0.8;" x="129.889196" xlink:href="#m808d666d46" y="108.481298"/>
     <use style="fill:#a1c9f4;fill-opacity:0.8;stroke:#a1c9f4;stroke-opacity:0.8;" x="119.790932" xlink:href="#m808d666d46" y="120.886887"/>
     <use style="fill:#a1c9f4;fill-opacity:0.8;stroke:#a1c9f4;stroke-opacity:0.8;" x="129.640928" xlink:href="#m808d666d46" y="111.507552"/>
     <use style="fill:#a1c9f4;fill-opacity:0.8;stroke:#a1c9f4;stroke-opacity:0.8;" x="102.76464" xlink:href="#m808d666d46" y="120.790713"/>
     <use style="fill:#a1c9f4;fill-opacity:0.8;stroke:#a1c9f4;stroke-opacity:0.8;" x="99.552693" xlink:href="#m808d666d46" y="105.668165"/>
     <use style="fill:#a1c9f4;fill-opacity:0.8;stroke:#a1c9f4;stroke-opacity:0.8;" x="176.004818" xlink:href="#m808d666d46" y="111.536532"/>
     <use style="fill:#a1c9f4;fill-opacity:0.8;stroke:#a1c9f4;stroke-opacity:0.8;" x="123.494112" xlink:href="#m808d666d46" y="116.474711"/>
     <use style="fill:#a1c9f4;fill-opacity:0.8;stroke:#a1c9f4;stroke-opacity:0.8;" x="133.344108" xlink:href="#m808d666d46" y="108.802389"/>
     <use style="fill:#a1c9f4;fill-opacity:0.8;stroke:#a1c9f4;stroke-opacity:0.8;" x="123.245844" xlink:href="#m808d666d46" y="119.793845"/>
     <use style="fill:#a1c9f4;fill-opacity:0.8;stroke:#a1c9f4;stroke-opacity:0.8;" x="133.09584" xlink:href="#m808d666d46" y="112.122035"/>
     <use style="fill:#a1c9f4;fill-opacity:0.8;stroke:#a1c9f4;stroke-opacity:0.8;" x="106.219552" xlink:href="#m808d666d46" y="123.408936"/>
     <use style="fill:#a1c9f4;fill-opacity:0.8;stroke:#a1c9f4;stroke-opacity:0.8;" x="104.249132" xlink:href="#m808d666d46" y="168.37291"/>
     <use style="fill:#a1c9f4;fill-opacity:0.8;stroke:#a1c9f4;stroke-opacity:0.8;" x="154.430071" xlink:href="#m808d666d46" y="181.359129"/>
     <use style="fill:#a1c9f4;fill-opacity:0.8;stroke:#a1c9f4;stroke-opacity:0.8;" x="161.339895" xlink:href="#m808d666d46" y="98.500816"/>
     <use style="fill:#a1c9f4;fill-opacity:0.8;stroke:#a1c9f4;stroke-opacity:0.8;" x="160.84336" xlink:href="#m808d666d46" y="174.826781"/>
     <use style="fill:#a1c9f4;fill-opacity:0.8;stroke:#a1c9f4;stroke-opacity:0.8;" x="168.249718" xlink:href="#m808d666d46" y="102.708591"/>
     <use style="fill:#a1c9f4;fill-opacity:0.8;stroke:#a1c9f4;stroke-opacity:0.8;" x="167.753183" xlink:href="#m808d666d46" y="101.198542"/>
     <use style="fill:#a1c9f4;fill-opacity:0.8;stroke:#a1c9f4;stroke-opacity:0.8;" x="175.159542" xlink:href="#m808d666d46" y="103.660835"/>
     <use style="fill:#a1c9f4;fill-opacity:0.8;stroke:#a1c9f4;stroke-opacity:0.8;" x="174.663007" xlink:href="#m808d666d46" y="106.013106"/>
     <use style="fill:#a1c9f4;fill-opacity:0.8;stroke:#a1c9f4;stroke-opacity:0.8;" x="159.982392" xlink:href="#m808d666d46" y="147.727192"/>
     <use style="fill:#a1c9f4;fill-opacity:0.8;stroke:#a1c9f4;stroke-opacity:0.8;" x="166.892215" xlink:href="#m808d666d46" y="169.206412"/>
     <use style="fill:#a1c9f4;fill-opacity:0.8;stroke:#a1c9f4;stroke-opacity:0.8;" x="166.39568" xlink:href="#m808d666d46" y="149.130553"/>
     <use style="fill:#a1c9f4;fill-opacity:0.8;stroke:#a1c9f4;stroke-opacity:0.8;" x="173.802039" xlink:href="#m808d666d46" y="171.870798"/>
     <use style="fill:#a1c9f4;fill-opacity:0.8;stroke:#a1c9f4;stroke-opacity:0.8;" x="173.305504" xlink:href="#m808d666d46" y="154.263644"/>
     <use style="fill:#a1c9f4;fill-opacity:0.8;stroke:#a1c9f4;stroke-opacity:0.8;" x="180.711863" xlink:href="#m808d666d46" y="181.647649"/>
     <use style="fill:#a1c9f4;fill-opacity:0.8;stroke:#a1c9f4;stroke-opacity:0.8;" x="180.215328" xlink:href="#m808d666d46" y="169.798583"/>
     <use style="fill:#a1c9f4;fill-opacity:0.8;stroke:#a1c9f4;stroke-opacity:0.8;" x="163.677413" xlink:href="#m808d666d46" y="159.390579"/>
     <use style="fill:#a1c9f4;fill-opacity:0.8;stroke:#a1c9f4;stroke-opacity:0.8;" x="170.587237" xlink:href="#m808d666d46" y="177.581697"/>
     <use style="fill:#a1c9f4;fill-opacity:0.8;stroke:#a1c9f4;stroke-opacity:0.8;" x="170.090702" xlink:href="#m808d666d46" y="159.784248"/>
     <use style="fill:#a1c9f4;fill-opacity:0.8;stroke:#a1c9f4;stroke-opacity:0.8;" x="177.497061" xlink:href="#m808d666d46" y="178.893245"/>
     <use style="fill:#a1c9f4;fill-opacity:0.8;stroke:#a1c9f4;stroke-opacity:0.8;" x="177.000526" xlink:href="#m808d666d46" y="176.712291"/>
     <use style="fill:#a1c9f4;fill-opacity:0.8;stroke:#a1c9f4;stroke-opacity:0.8;" x="184.406884" xlink:href="#m808d666d46" y="189.667221"/>
     <use style="fill:#a1c9f4;fill-opacity:0.8;stroke:#a1c9f4;stroke-opacity:0.8;" x="183.910349" xlink:href="#m808d666d46" y="178.023838"/>
     <use style="fill:#a1c9f4;fill-opacity:0.8;stroke:#a1c9f4;stroke-opacity:0.8;" x="173.279142" xlink:href="#m808d666d46" y="156.830573"/>
     <use style="fill:#a1c9f4;fill-opacity:0.8;stroke:#a1c9f4;stroke-opacity:0.8;" x="180.188965" xlink:href="#m808d666d46" y="175.407411"/>
     <use style="fill:#a1c9f4;fill-opacity:0.8;stroke:#a1c9f4;stroke-opacity:0.8;" x="179.69243" xlink:href="#m808d666d46" y="157.421719"/>
     <use style="fill:#a1c9f4;fill-opacity:0.8;stroke:#a1c9f4;stroke-opacity:0.8;" x="187.098789" xlink:href="#m808d666d46" y="176.833084"/>
     <use style="fill:#a1c9f4;fill-opacity:0.8;stroke:#a1c9f4;stroke-opacity:0.8;" x="186.602254" xlink:href="#m808d666d46" y="174.682393"/>
     <use style="fill:#a1c9f4;fill-opacity:0.8;stroke:#a1c9f4;stroke-opacity:0.8;" x="194.008613" xlink:href="#m808d666d46" y="189.085052"/>
     <use style="fill:#a1c9f4;fill-opacity:0.8;stroke:#a1c9f4;stroke-opacity:0.8;" x="193.512078" xlink:href="#m808d666d46" y="176.093447"/>
     <use style="fill:#a1c9f4;fill-opacity:0.8;stroke:#a1c9f4;stroke-opacity:0.8;" x="97.582273" xlink:href="#m808d666d46" y="195.714343"/>
     <use style="fill:#a1c9f4;fill-opacity:0.8;stroke:#a1c9f4;stroke-opacity:0.8;" x="165.278287" xlink:href="#m808d666d46" y="144.917905"/>
     <use style="fill:#a1c9f4;fill-opacity:0.8;stroke:#a1c9f4;stroke-opacity:0.8;" x="172.188111" xlink:href="#m808d666d46" y="166.855167"/>
     <use style="fill:#a1c9f4;fill-opacity:0.8;stroke:#a1c9f4;stroke-opacity:0.8;" x="171.691576" xlink:href="#m808d666d46" y="146.557212"/>
     <use style="fill:#a1c9f4;fill-opacity:0.8;stroke:#a1c9f4;stroke-opacity:0.8;" x="179.097935" xlink:href="#m808d666d46" y="169.662915"/>
     <use style="fill:#a1c9f4;fill-opacity:0.8;stroke:#a1c9f4;stroke-opacity:0.8;" x="178.6014" xlink:href="#m808d666d46" y="151.87239"/>
     <use style="fill:#a1c9f4;fill-opacity:0.8;stroke:#a1c9f4;stroke-opacity:0.8;" x="186.007758" xlink:href="#m808d666d46" y="181.004185"/>
     <use style="fill:#a1c9f4;fill-opacity:0.8;stroke:#a1c9f4;stroke-opacity:0.8;" x="185.511223" xlink:href="#m808d666d46" y="169.104853"/>
     <use style="fill:#a1c9f4;fill-opacity:0.8;stroke:#a1c9f4;stroke-opacity:0.8;" x="102.878168" xlink:href="#m808d666d46" y="183.627537"/>
     <use style="fill:#a1c9f4;fill-opacity:0.8;stroke:#a1c9f4;stroke-opacity:0.8;" x="116.584288" xlink:href="#m808d666d46" y="118.095039"/>
     <use style="fill:#a1c9f4;fill-opacity:0.8;stroke:#a1c9f4;stroke-opacity:0.8;" x="126.434284" xlink:href="#m808d666d46" y="108.062495"/>
     <use style="fill:#a1c9f4;fill-opacity:0.8;stroke:#a1c9f4;stroke-opacity:0.8;" x="116.33602" xlink:href="#m808d666d46" y="122.299993"/>
     <use style="fill:#a1c9f4;fill-opacity:0.8;stroke:#a1c9f4;stroke-opacity:0.8;" x="126.186016" xlink:href="#m808d666d46" y="106.518593"/>
    </g>
   </g>
   <g id="PolyCollection_1">
    <defs>
     <path d="M 49.8 -198.796428 
L 49.8 -147.760371 
L 51.703203 -147.682508 
L 53.606407 -147.582122 
L 55.50961 -147.482565 
L 57.412814 -147.381209 
L 59.316017 -147.213446 
L 61.219221 -147.138632 
L 63.122424 -147.081404 
L 65.025628 -146.979811 
L 66.928831 -146.879426 
L 68.832035 -146.77904 
L 70.735238 -146.68886 
L 72.638442 -146.57827 
L 74.541645 -146.477885 
L 76.444848 -146.377499 
L 78.348052 -146.277114 
L 80.251255 -146.176729 
L 82.154459 -146.076344 
L 84.057662 -145.979592 
L 85.960866 -145.889408 
L 87.864069 -145.772488 
L 89.767273 -145.669607 
L 91.670476 -145.569098 
L 93.57368 -145.509361 
L 95.476883 -145.434648 
L 97.380087 -145.302376 
L 99.28329 -145.170103 
L 101.186494 -145.067318 
L 103.089697 -144.965649 
L 104.9929 -144.797048 
L 106.896104 -144.63488 
L 108.799307 -144.35654 
L 110.702511 -144.276507 
L 112.605714 -144.204177 
L 114.508918 -143.989244 
L 116.412121 -143.762194 
L 118.315325 -143.536236 
L 120.218528 -143.236298 
L 122.121732 -143.005373 
L 124.024935 -142.961885 
L 125.928139 -142.692934 
L 127.831342 -142.606147 
L 129.734545 -142.38868 
L 131.637749 -142.23166 
L 133.540952 -141.824224 
L 135.444156 -141.546978 
L 137.347359 -141.155256 
L 139.250563 -140.947273 
L 141.153766 -140.624157 
L 143.05697 -140.311428 
L 144.960173 -139.810792 
L 146.863377 -139.305277 
L 148.76658 -138.796098 
L 150.669784 -138.322665 
L 152.572987 -137.811018 
L 154.47619 -137.383461 
L 156.379394 -136.787061 
L 158.282597 -136.195011 
L 160.185801 -135.698965 
L 162.089004 -135.133824 
L 163.992208 -134.586984 
L 165.895411 -133.969747 
L 167.798615 -133.211108 
L 169.701818 -132.486934 
L 171.605022 -131.75902 
L 173.508225 -130.964075 
L 175.411429 -130.295295 
L 177.314632 -129.465698 
L 179.217835 -128.653913 
L 181.121039 -127.89352 
L 183.024242 -127.041539 
L 184.927446 -126.138984 
L 186.830649 -125.178912 
L 188.733853 -124.372884 
L 190.637056 -123.354566 
L 192.54026 -122.387842 
L 194.443463 -121.552629 
L 196.346667 -120.695342 
L 198.24987 -119.801007 
L 200.153074 -118.928143 
L 202.056277 -118.09196 
L 203.959481 -117.274514 
L 205.862684 -116.405755 
L 207.765887 -115.469376 
L 209.669091 -114.543701 
L 211.572294 -113.681014 
L 213.475498 -112.770653 
L 215.378701 -111.815735 
L 217.281905 -110.808546 
L 219.185108 -109.857487 
L 221.088312 -108.920205 
L 222.991515 -107.800868 
L 224.894719 -106.912393 
L 226.797922 -105.796979 
L 228.701126 -104.834348 
L 230.604329 -103.993819 
L 232.507532 -103.155697 
L 234.410736 -102.31932 
L 236.313939 -101.432658 
L 238.217143 -100.499528 
L 238.217143 -144.083539 
L 238.217143 -144.083539 
L 236.313939 -144.118529 
L 234.410736 -144.153518 
L 232.507532 -144.186455 
L 230.604329 -144.217843 
L 228.701126 -144.249232 
L 226.797922 -144.28062 
L 224.894719 -144.312009 
L 222.991515 -144.343398 
L 221.088312 -144.374786 
L 219.185108 -144.434819 
L 217.281905 -144.442701 
L 215.378701 -144.478816 
L 213.475498 -144.616567 
L 211.572294 -144.759386 
L 209.669091 -144.897784 
L 207.765887 -144.919169 
L 205.862684 -145.011688 
L 203.959481 -145.151244 
L 202.056277 -145.349329 
L 200.153074 -145.357041 
L 198.24987 -145.37658 
L 196.346667 -145.395733 
L 194.443463 -145.582342 
L 192.54026 -145.768951 
L 190.637056 -145.937619 
L 188.733853 -146.061361 
L 186.830649 -146.168479 
L 184.927446 -146.219343 
L 183.024242 -146.402439 
L 181.121039 -146.586994 
L 179.217835 -146.639739 
L 177.314632 -146.842469 
L 175.411429 -147.138309 
L 173.508225 -147.442821 
L 171.605022 -147.767286 
L 169.701818 -148.014508 
L 167.798615 -148.222649 
L 165.895411 -148.407169 
L 163.992208 -148.710601 
L 162.089004 -149.193715 
L 160.185801 -149.52915 
L 158.282597 -149.759842 
L 156.379394 -149.957835 
L 154.47619 -150.342749 
L 152.572987 -150.877557 
L 150.669784 -151.385368 
L 148.76658 -151.894506 
L 146.863377 -152.416224 
L 144.960173 -153.196963 
L 143.05697 -153.718407 
L 141.153766 -154.42549 
L 139.250563 -155.288677 
L 137.347359 -156.222924 
L 135.444156 -157.091761 
L 133.540952 -157.740523 
L 131.637749 -158.612671 
L 129.734545 -159.445951 
L 127.831342 -160.206157 
L 125.928139 -161.058436 
L 124.024935 -162.050681 
L 122.121732 -162.903555 
L 120.218528 -163.82091 
L 118.315325 -164.781185 
L 116.412121 -165.719318 
L 114.508918 -166.584662 
L 112.605714 -167.493876 
L 110.702511 -168.4006 
L 108.799307 -169.213754 
L 106.896104 -170.070946 
L 104.9929 -171.061641 
L 103.089697 -171.88137 
L 101.186494 -172.845878 
L 99.28329 -173.847726 
L 97.380087 -174.770342 
L 95.476883 -175.732813 
L 93.57368 -176.514768 
L 91.670476 -177.411123 
L 89.767273 -178.419016 
L 87.864069 -179.42691 
L 85.960866 -180.434803 
L 84.057662 -181.442697 
L 82.154459 -182.467611 
L 80.251255 -183.440897 
L 78.348052 -184.405663 
L 76.444848 -185.370429 
L 74.541645 -186.335196 
L 72.638442 -187.299962 
L 70.735238 -188.262551 
L 68.832035 -189.224669 
L 66.928831 -190.186787 
L 65.025628 -191.126856 
L 63.122424 -192.031465 
L 61.219221 -192.994654 
L 59.316017 -194.040567 
L 57.412814 -195.006237 
L 55.50961 -195.968914 
L 53.606407 -196.931591 
L 51.703203 -197.870024 
L 49.8 -198.796428 
z
" id="m80364b0bef" style="stroke:#ffffff;stroke-opacity:0.15;"/>
    </defs>
    <g clip-path="url(#p42084c4530)">
     <use style="fill:#a1c9f4;fill-opacity:0.15;stroke:#ffffff;stroke-opacity:0.15;" x="0" xlink:href="#m80364b0bef" y="288"/>
    </g>
   </g>
   <g id="line2d_1">
    <path clip-path="url(#p42084c4530)" d="M 49.8 116.103986 
L 51.703203 116.610864 
L 53.606407 117.117743 
L 55.50961 117.624621 
L 57.412814 118.131499 
L 59.316017 118.638378 
L 61.219221 119.145256 
L 63.122424 119.652134 
L 65.025628 120.159012 
L 66.928831 120.665891 
L 68.832035 121.172769 
L 70.735238 121.679647 
L 72.638442 122.186526 
L 74.541645 122.693404 
L 76.444848 123.200282 
L 78.348052 123.70716 
L 80.251255 124.214039 
L 82.154459 124.720917 
L 84.057662 125.227795 
L 85.960866 125.734674 
L 87.864069 126.241552 
L 89.767273 126.74843 
L 91.670476 127.255308 
L 93.57368 127.762187 
L 95.476883 128.269065 
L 97.380087 128.775943 
L 99.28329 129.282822 
L 101.186494 129.7897 
L 103.089697 130.296578 
L 104.9929 130.803456 
L 106.896104 131.310335 
L 108.799307 131.817213 
L 110.702511 132.324091 
L 112.605714 132.830969 
L 114.508918 133.337848 
L 116.412121 133.844726 
L 118.315325 134.351604 
L 120.218528 134.858483 
L 122.121732 135.365361 
L 124.024935 135.872239 
L 125.928139 136.379117 
L 127.831342 136.885996 
L 129.734545 137.392874 
L 131.637749 137.899752 
L 133.540952 138.406631 
L 135.444156 138.913509 
L 137.347359 139.420387 
L 139.250563 139.927265 
L 141.153766 140.434144 
L 143.05697 140.941022 
L 144.960173 141.4479 
L 146.863377 141.954779 
L 148.76658 142.461657 
L 150.669784 142.968535 
L 152.572987 143.475413 
L 154.47619 143.982292 
L 156.379394 144.48917 
L 158.282597 144.996048 
L 160.185801 145.502927 
L 162.089004 146.009805 
L 163.992208 146.516683 
L 165.895411 147.023561 
L 167.798615 147.53044 
L 169.701818 148.037318 
L 171.605022 148.544196 
L 173.508225 149.051075 
L 175.411429 149.557953 
L 177.314632 150.064831 
L 179.217835 150.571709 
L 181.121039 151.078588 
L 183.024242 151.585466 
L 184.927446 152.092344 
L 186.830649 152.599223 
L 188.733853 153.106101 
L 190.637056 153.612979 
L 192.54026 154.119857 
L 194.443463 154.626736 
L 196.346667 155.133614 
L 198.24987 155.640492 
L 200.153074 156.147371 
L 202.056277 156.654249 
L 203.959481 157.161127 
L 205.862684 157.668005 
L 207.765887 158.174884 
L 209.669091 158.681762 
L 211.572294 159.18864 
L 213.475498 159.695519 
L 215.378701 160.202397 
L 217.281905 160.709275 
L 219.185108 161.216153 
L 221.088312 161.723032 
L 222.991515 162.22991 
L 224.894719 162.736788 
L 226.797922 163.243667 
L 228.701126 163.750545 
L 230.604329 164.257423 
L 232.507532 164.764301 
L 234.410736 165.27118 
L 236.313939 165.778058 
L 238.217143 166.284936 
" style="fill:none;stroke:#a1c9f4;stroke-linecap:round;stroke-width:2.25;"/>
   </g>
   <g id="patch_3">
    <path d="M 49.8 243.7 
L 49.8 50.725714 
" style="fill:none;stroke:#262626;stroke-linecap:square;stroke-linejoin:miter;stroke-width:1.25;"/>
   </g>
   <g id="patch_4">
    <path d="M 49.8 243.7 
L 238.217143 243.7 
" style="fill:none;stroke:#262626;stroke-linecap:square;stroke-linejoin:miter;stroke-width:1.25;"/>
   </g>
  </g>
  <g id="axes_2">
   <g id="patch_5">
    <path d="M 49.8 44.071429 
L 238.217143 44.071429 
L 238.217143 10.8 
L 49.8 10.8 
z
" style="fill:#ffffff;"/>
   </g>
   <g id="matplotlib.axis_3">
    <g id="xtick_4"/>
    <g id="xtick_5"/>
    <g id="xtick_6"/>
   </g>
   <g id="matplotlib.axis_4">
    <g id="ytick_9"/>
    <g id="ytick_10"/>
   </g>
   <g id="patch_6">
    <path clip-path="url(#pc4715ffda3)" d="M 94.00853 44.071429 
L 114.008547 44.071429 
L 114.008547 23.436663 
L 94.00853 23.436663 
z
" style="fill:#a1c9f4;opacity:0.4;stroke:#ffffff;stroke-linejoin:miter;"/>
   </g>
   <g id="patch_7">
    <path clip-path="url(#pc4715ffda3)" d="M 114.008547 44.071429 
L 134.008563 44.071429 
L 134.008563 23.436663 
L 114.008547 23.436663 
z
" style="fill:#a1c9f4;opacity:0.4;stroke:#ffffff;stroke-linejoin:miter;"/>
   </g>
   <g id="patch_8">
    <path clip-path="url(#pc4715ffda3)" d="M 134.008563 44.071429 
L 154.00858 44.071429 
L 154.00858 20.488839 
L 134.008563 20.488839 
z
" style="fill:#a1c9f4;opacity:0.4;stroke:#ffffff;stroke-linejoin:miter;"/>
   </g>
   <g id="patch_9">
    <path clip-path="url(#pc4715ffda3)" d="M 154.00858 44.071429 
L 174.008596 44.071429 
L 174.008596 13.11928 
L 154.00858 13.11928 
z
" style="fill:#a1c9f4;opacity:0.4;stroke:#ffffff;stroke-linejoin:miter;"/>
   </g>
   <g id="patch_10">
    <path clip-path="url(#pc4715ffda3)" d="M 174.008596 44.071429 
L 194.008613 44.071429 
L 194.008613 14.593192 
L 174.008596 14.593192 
z
" style="fill:#a1c9f4;opacity:0.4;stroke:#ffffff;stroke-linejoin:miter;"/>
   </g>
   <g id="line2d_2">
    <path clip-path="url(#pc4715ffda3)" d="M 58.364416 44.019068 
L 60.094601 43.989872 
L 61.824786 43.946863 
L 63.55497 43.884847 
L 65.285155 43.797322 
L 67.01534 43.67642 
L 68.745525 43.512973 
L 70.47571 43.296735 
L 72.205895 43.0168 
L 73.93608 42.662223 
L 75.666265 42.222851 
L 77.39645 41.690309 
L 79.126635 41.059068 
L 80.85682 40.327494 
L 82.587005 39.498738 
L 84.31719 38.581318 
L 86.047375 37.589282 
L 87.77756 36.541839 
L 89.507745 35.462426 
L 91.23793 34.377247 
L 92.968115 33.313383 
L 94.6983 32.296656 
L 96.428485 31.349477 
L 98.15867 30.488915 
L 99.888855 29.725238 
L 101.61904 29.061099 
L 103.349225 28.491487 
L 105.07941 28.004447 
L 106.809595 27.582503 
L 108.53978 27.2046 
L 110.269965 26.848354 
L 112.00015 26.492354 
L 113.730335 26.118262 
L 115.460519 25.712532 
L 117.190704 25.267576 
L 118.920889 24.782323 
L 120.651074 24.262145 
L 122.381259 23.718203 
L 124.111444 23.166288 
L 125.841629 22.625279 
L 127.571814 22.115315 
L 129.301999 21.655836 
L 131.032184 21.263615 
L 132.762369 20.950938 
L 134.492554 20.724069 
L 136.222739 20.582162 
L 137.952924 20.516739 
L 139.683109 20.511832 
L 141.413294 20.544834 
L 143.143479 20.588021 
L 144.873664 20.610653 
L 146.603849 20.581483 
L 148.334034 20.471446 
L 150.064219 20.256294 
L 151.794404 19.918925 
L 153.524589 19.451213 
L 155.254774 18.855167 
L 156.984959 18.143355 
L 158.715144 17.338564 
L 160.445329 16.472757 
L 162.175514 15.585418 
L 163.905699 14.72143 
L 165.635884 13.928628 
L 167.366068 13.255198 
L 169.096253 12.747059 
L 170.826438 12.445379 
L 172.556623 12.384354 
L 174.286808 12.589354 
L 176.016993 13.075539 
L 177.747178 13.847014 
L 179.477363 14.896579 
L 181.207548 16.206092 
L 182.937733 17.747434 
L 184.667918 19.484015 
L 186.398103 21.372741 
L 188.128288 23.366299 
L 189.858473 25.41562 
L 191.588658 27.472328 
L 193.318843 29.491032 
L 195.049028 31.431286 
L 196.779213 33.25911 
L 198.509398 34.947995 
L 200.239583 36.479356 
L 201.969768 37.842465 
L 203.699953 39.033917 
L 205.430138 40.056732 
L 207.160323 40.919203 
L 208.890508 41.633611 
L 210.620693 42.214926 
L 212.350878 42.679581 
L 214.081063 43.044405 
L 215.811248 43.325747 
L 217.541433 43.538827 
L 219.271617 43.697299 
L 221.001802 43.813021 
L 222.731987 43.895979 
L 224.462172 43.954356 
L 226.192357 43.99467 
L 227.922542 44.021991 
L 229.652727 44.040155 
" style="fill:none;stroke:#a1c9f4;stroke-linecap:round;stroke-width:1.5;"/>
   </g>
   <g id="patch_11">
    <path d="M 49.8 44.071429 
L 238.217143 44.071429 
" style="fill:none;stroke:#262626;stroke-linecap:square;stroke-linejoin:miter;stroke-width:1.25;"/>
   </g>
  </g>
  <g id="axes_3">
   <g id="patch_12">
    <path d="M 244.714286 243.7 
L 277.2 243.7 
L 277.2 50.725714 
L 244.714286 50.725714 
z
" style="fill:#ffffff;"/>
   </g>
   <g id="matplotlib.axis_5">
    <g id="xtick_7"/>
    <g id="xtick_8"/>
   </g>
   <g id="matplotlib.axis_6">
    <g id="ytick_11"/>
    <g id="ytick_12"/>
    <g id="ytick_13"/>
    <g id="ytick_14"/>
    <g id="ytick_15"/>
    <g id="ytick_16"/>
    <g id="ytick_17"/>
    <g id="ytick_18"/>
   </g>
   <g id="patch_13">
    <path clip-path="url(#pa27e092182)" d="M 244.714286 195.924898 
L 264.782681 195.924898 
L 264.782681 171.568878 
L 244.714286 171.568878 
z
" style="fill:#a1c9f4;opacity:0.4;stroke:#ffffff;stroke-linejoin:miter;"/>
   </g>
   <g id="patch_14">
    <path clip-path="url(#pa27e092182)" d="M 244.714286 171.568878 
L 258.093216 171.568878 
L 258.093216 147.212857 
L 244.714286 147.212857 
z
" style="fill:#a1c9f4;opacity:0.4;stroke:#ffffff;stroke-linejoin:miter;"/>
   </g>
   <g id="patch_15">
    <path clip-path="url(#pa27e092182)" d="M 244.714286 147.212857 
L 251.403751 147.212857 
L 251.403751 122.856837 
L 244.714286 122.856837 
z
" style="fill:#a1c9f4;opacity:0.4;stroke:#ffffff;stroke-linejoin:miter;"/>
   </g>
   <g id="patch_16">
    <path clip-path="url(#pa27e092182)" d="M 244.714286 122.856837 
L 275.653061 122.856837 
L 275.653061 98.500816 
L 244.714286 98.500816 
z
" style="fill:#a1c9f4;opacity:0.4;stroke:#ffffff;stroke-linejoin:miter;"/>
   </g>
   <g id="line2d_3">
    <path clip-path="url(#pa27e092182)" d="M 244.740861 234.928442 
L 244.754501 233.15641 
L 244.774147 231.384378 
L 244.801949 229.612346 
L 244.840615 227.840314 
L 244.893476 226.068282 
L 244.96453 224.29625 
L 245.058463 222.524217 
L 245.180627 220.752185 
L 245.336987 218.980153 
L 245.534004 217.208121 
L 245.778487 215.436089 
L 246.077386 213.664057 
L 246.437543 211.892025 
L 246.86541 210.119993 
L 247.366721 208.347961 
L 247.946143 206.575929 
L 248.606891 204.803897 
L 249.350329 203.031865 
L 250.175546 201.259833 
L 251.078942 199.487801 
L 252.053834 197.715769 
L 253.090129 195.943737 
L 254.17412 194.171705 
L 255.288442 192.399673 
L 256.412285 190.627641 
L 257.521869 188.855609 
L 258.591251 187.083577 
L 259.59343 185.311545 
L 260.501701 183.539513 
L 261.291186 181.767481 
L 261.940391 179.995449 
L 262.432643 178.223417 
L 262.757249 176.451385 
L 262.91024 174.679353 
L 262.894601 172.907321 
L 262.719957 171.135289 
L 262.401745 169.363257 
L 261.959968 167.591225 
L 261.417687 165.819193 
L 260.799436 164.047161 
L 260.129743 162.275129 
L 259.431925 160.503097 
L 258.727269 158.731065 
L 258.034661 156.959033 
L 257.370641 155.187001 
L 256.749801 153.414969 
L 256.185412 151.642937 
L 255.690096 149.870905 
L 255.276411 148.098873 
L 254.957181 146.326841 
L 254.745481 144.554809 
L 254.654239 142.782777 
L 254.695457 141.010745 
L 254.879136 139.238713 
L 255.212026 137.466681 
L 255.696345 135.694649 
L 256.328644 133.922617 
L 257.098947 132.150585 
L 257.990306 130.378553 
L 258.978829 128.606521 
L 260.034214 126.834489 
L 261.120761 125.062457 
L 262.198796 123.290425 
L 263.226399 121.518393 
L 264.161346 119.746361 
L 264.96311 117.974329 
L 265.594835 116.202297 
L 266.02516 114.430265 
L 266.229803 112.658233 
L 266.192819 110.886201 
L 265.907465 109.114169 
L 265.376603 107.342137 
L 264.61261 105.570105 
L 263.636772 103.798073 
L 262.478165 102.026041 
L 261.172098 100.254009 
L 259.758189 98.481977 
L 258.278212 96.709945 
L 256.773876 94.937913 
L 255.284688 93.165881 
L 253.846089 91.393849 
L 252.48797 89.621817 
L 251.23368 87.849785 
L 250.09956 86.077753 
L 249.094998 84.305721 
L 248.222934 82.533689 
L 247.480722 80.761657 
L 246.861226 78.989625 
L 246.354028 77.217593 
L 245.946627 75.445561 
L 245.625527 73.673529 
L 245.377164 71.901497 
L 245.188624 70.129465 
L 245.048139 68.357433 
L 244.945385 66.585401 
L 244.871604 64.813369 
L 244.819596 63.041337 
L 244.783602 61.269305 
L 244.759145 59.497273 
" style="fill:none;stroke:#a1c9f4;stroke-linecap:round;stroke-width:1.5;"/>
   </g>
   <g id="patch_17">
    <path d="M 244.714286 243.7 
L 244.714286 50.725714 
" style="fill:none;stroke:#262626;stroke-linecap:square;stroke-linejoin:miter;stroke-width:1.25;"/>
   </g>
  </g>
  <g id="text_14">
   <!-- $R^2=-0.24$ -->
   <defs>
    <path d="M 25.203125 64.796875 
L 20.21875 38.921875 
L 32.90625 38.921875 
Q 40.375 38.921875 44.984375 43.046875 
Q 49.609375 47.171875 49.609375 53.8125 
Q 49.609375 59.125 46.5 61.953125 
Q 43.40625 64.796875 37.59375 64.796875 
z
M 43.3125 35.015625 
Q 46.4375 34.28125 48.515625 31.390625 
Q 50.59375 28.515625 53.328125 19.921875 
L 59.515625 0 
L 49.125 0 
L 43.40625 18.703125 
Q 41.21875 25.921875 38.328125 28.359375 
Q 35.453125 30.8125 29.5 30.8125 
L 18.609375 30.8125 
L 12.59375 0 
L 2.6875 0 
L 16.890625 72.90625 
L 39.109375 72.90625 
Q 49.21875 72.90625 54.609375 68.328125 
Q 60.015625 63.765625 60.015625 55.171875 
Q 60.015625 47.5625 55.421875 41.984375 
Q 50.828125 36.421875 43.3125 35.015625 
z
" id="DejaVuSans-Oblique-82"/>
    <path d="M 19.1875 8.296875 
L 53.609375 8.296875 
L 53.609375 0 
L 7.328125 0 
L 7.328125 8.296875 
Q 12.9375 14.109375 22.625 23.890625 
Q 32.328125 33.6875 34.8125 36.53125 
Q 39.546875 41.84375 41.421875 45.53125 
Q 43.3125 49.21875 43.3125 52.78125 
Q 43.3125 58.59375 39.234375 62.25 
Q 35.15625 65.921875 28.609375 65.921875 
Q 23.96875 65.921875 18.8125 64.3125 
Q 13.671875 62.703125 7.8125 59.421875 
L 7.8125 69.390625 
Q 13.765625 71.78125 18.9375 73 
Q 24.125 74.21875 28.421875 74.21875 
Q 39.75 74.21875 46.484375 68.546875 
Q 53.21875 62.890625 53.21875 53.421875 
Q 53.21875 48.921875 51.53125 44.890625 
Q 49.859375 40.875 45.40625 35.40625 
Q 44.1875 33.984375 37.640625 27.21875 
Q 31.109375 20.453125 19.1875 8.296875 
z
" id="DejaVuSans-50"/>
    <path d="M 10.59375 45.40625 
L 73.1875 45.40625 
L 73.1875 37.203125 
L 10.59375 37.203125 
z
M 10.59375 25.484375 
L 73.1875 25.484375 
L 73.1875 17.1875 
L 10.59375 17.1875 
z
" id="DejaVuSans-61"/>
    <path d="M 10.59375 35.5 
L 73.1875 35.5 
L 73.1875 27.203125 
L 10.59375 27.203125 
z
" id="DejaVuSans-8722"/>
    <path d="M 31.78125 66.40625 
Q 24.171875 66.40625 20.328125 58.90625 
Q 16.5 51.421875 16.5 36.375 
Q 16.5 21.390625 20.328125 13.890625 
Q 24.171875 6.390625 31.78125 6.390625 
Q 39.453125 6.390625 43.28125 13.890625 
Q 47.125 21.390625 47.125 36.375 
Q 47.125 51.421875 43.28125 58.90625 
Q 39.453125 66.40625 31.78125 66.40625 
z
M 31.78125 74.21875 
Q 44.046875 74.21875 50.515625 64.515625 
Q 56.984375 54.828125 56.984375 36.375 
Q 56.984375 17.96875 50.515625 8.265625 
Q 44.046875 -1.421875 31.78125 -1.421875 
Q 19.53125 -1.421875 13.0625 8.265625 
Q 6.59375 17.96875 6.59375 36.375 
Q 6.59375 54.828125 13.0625 64.515625 
Q 19.53125 74.21875 31.78125 74.21875 
z
" id="DejaVuSans-48"/>
    <path d="M 10.6875 12.40625 
L 21 12.40625 
L 21 0 
L 10.6875 0 
z
" id="DejaVuSans-46"/>
    <path d="M 37.796875 64.3125 
L 12.890625 25.390625 
L 37.796875 25.390625 
z
M 35.203125 72.90625 
L 47.609375 72.90625 
L 47.609375 25.390625 
L 58.015625 25.390625 
L 58.015625 17.1875 
L 47.609375 17.1875 
L 47.609375 0 
L 37.796875 0 
L 37.796875 17.1875 
L 4.890625 17.1875 
L 4.890625 26.703125 
z
" id="DejaVuSans-52"/>
   </defs>
   <g style="fill:#262626;" transform="translate(72 73.70775)scale(0.12 -0.12)">
    <use transform="translate(0 0.765625)" xlink:href="#DejaVuSans-Oblique-82"/>
    <use transform="translate(76.499193 39.046875)scale(0.7)" xlink:href="#DejaVuSans-50"/>
    <use transform="translate(143.252122 0.765625)" xlink:href="#DejaVuSans-61"/>
    <use transform="translate(266.006029 0.765625)" xlink:href="#DejaVuSans-8722"/>
    <use transform="translate(369.277513 0.765625)" xlink:href="#DejaVuSans-48"/>
    <use transform="translate(432.90056 0.765625)" xlink:href="#DejaVuSans-46"/>
    <use transform="translate(464.609544 0.765625)" xlink:href="#DejaVuSans-50"/>
    <use transform="translate(528.232591 0.765625)" xlink:href="#DejaVuSans-52"/>
   </g>
   <!-- $n=85$ -->
   <defs>
    <path d="M 55.71875 33.015625 
L 49.3125 0 
L 40.28125 0 
L 46.6875 32.671875 
Q 47.125 34.96875 47.359375 36.71875 
Q 47.609375 38.484375 47.609375 39.5 
Q 47.609375 43.609375 45.015625 45.890625 
Q 42.4375 48.1875 37.796875 48.1875 
Q 30.5625 48.1875 25.34375 43.375 
Q 20.125 38.578125 18.5 30.328125 
L 12.5 0 
L 3.515625 0 
L 14.109375 54.6875 
L 23.09375 54.6875 
L 21.296875 46.09375 
Q 25.046875 50.828125 30.3125 53.40625 
Q 35.59375 56 41.40625 56 
Q 48.640625 56 52.609375 52.09375 
Q 56.59375 48.1875 56.59375 41.109375 
Q 56.59375 39.359375 56.375 37.359375 
Q 56.15625 35.359375 55.71875 33.015625 
z
" id="DejaVuSans-Oblique-110"/>
    <path d="M 31.78125 34.625 
Q 24.75 34.625 20.71875 30.859375 
Q 16.703125 27.09375 16.703125 20.515625 
Q 16.703125 13.921875 20.71875 10.15625 
Q 24.75 6.390625 31.78125 6.390625 
Q 38.8125 6.390625 42.859375 10.171875 
Q 46.921875 13.96875 46.921875 20.515625 
Q 46.921875 27.09375 42.890625 30.859375 
Q 38.875 34.625 31.78125 34.625 
z
M 21.921875 38.8125 
Q 15.578125 40.375 12.03125 44.71875 
Q 8.5 49.078125 8.5 55.328125 
Q 8.5 64.0625 14.71875 69.140625 
Q 20.953125 74.21875 31.78125 74.21875 
Q 42.671875 74.21875 48.875 69.140625 
Q 55.078125 64.0625 55.078125 55.328125 
Q 55.078125 49.078125 51.53125 44.71875 
Q 48 40.375 41.703125 38.8125 
Q 48.828125 37.15625 52.796875 32.3125 
Q 56.78125 27.484375 56.78125 20.515625 
Q 56.78125 9.90625 50.3125 4.234375 
Q 43.84375 -1.421875 31.78125 -1.421875 
Q 19.734375 -1.421875 13.25 4.234375 
Q 6.78125 9.90625 6.78125 20.515625 
Q 6.78125 27.484375 10.78125 32.3125 
Q 14.796875 37.15625 21.921875 38.8125 
z
M 18.3125 54.390625 
Q 18.3125 48.734375 21.84375 45.5625 
Q 25.390625 42.390625 31.78125 42.390625 
Q 38.140625 42.390625 41.71875 45.5625 
Q 45.3125 48.734375 45.3125 54.390625 
Q 45.3125 60.0625 41.71875 63.234375 
Q 38.140625 66.40625 31.78125 66.40625 
Q 25.390625 66.40625 21.84375 63.234375 
Q 18.3125 60.0625 18.3125 54.390625 
z
" id="DejaVuSans-56"/>
    <path d="M 10.796875 72.90625 
L 49.515625 72.90625 
L 49.515625 64.59375 
L 19.828125 64.59375 
L 19.828125 46.734375 
Q 21.96875 47.46875 24.109375 47.828125 
Q 26.265625 48.1875 28.421875 48.1875 
Q 40.625 48.1875 47.75 41.5 
Q 54.890625 34.8125 54.890625 23.390625 
Q 54.890625 11.625 47.5625 5.09375 
Q 40.234375 -1.421875 26.90625 -1.421875 
Q 22.3125 -1.421875 17.546875 -0.640625 
Q 12.796875 0.140625 7.71875 1.703125 
L 7.71875 11.625 
Q 12.109375 9.234375 16.796875 8.0625 
Q 21.484375 6.890625 26.703125 6.890625 
Q 35.15625 6.890625 40.078125 11.328125 
Q 45.015625 15.765625 45.015625 23.390625 
Q 45.015625 31 40.078125 35.4375 
Q 35.15625 39.890625 26.703125 39.890625 
Q 22.75 39.890625 18.8125 39.015625 
Q 14.890625 38.140625 10.796875 36.28125 
z
" id="DejaVuSans-53"/>
   </defs>
   <g style="fill:#262626;" transform="translate(72 86.4)scale(0.12 -0.12)">
    <use transform="translate(0 0.78125)" xlink:href="#DejaVuSans-Oblique-110"/>
    <use transform="translate(82.861328 0.78125)" xlink:href="#DejaVuSans-61"/>
    <use transform="translate(186.132812 0.78125)" xlink:href="#DejaVuSans-56"/>
    <use transform="translate(249.755859 0.78125)" xlink:href="#DejaVuSans-53"/>
   </g>
  </g>
 </g>
 <defs>
  <clipPath id="p42084c4530">
   <rect height="192.974286" width="188.417143" x="49.8" y="50.725714"/>
  </clipPath>
  <clipPath id="pc4715ffda3">
   <rect height="33.271429" width="188.417143" x="49.8" y="10.8"/>
  </clipPath>
  <clipPath id="pa27e092182">
   <rect height="192.974286" width="32.485714" x="244.714286" y="50.725714"/>
  </clipPath>
 </defs>
</svg>
